<svg width="375" height="370" viewBox="0 0 375 370" fill="none" xmlns="http://www.w3.org/2000/svg">
<g clip-path="url(#clip0_537_3749)">
<path d="M435.522 325.122H-61V325.371H435.522V325.122Z" fill="#EBEBEB"/>
<path d="M385.77 341.1H352.881V341.349H385.77V341.1Z" fill="#EBEBEB"/>
<path d="M267.916 343.802H259.286V344.05H267.916V343.802Z" fill="#EBEBEB"/>
<path d="M351.888 331.885H332.831V332.134H351.888V331.885Z" fill="#EBEBEB"/>
<path d="M33.9845 333.554H-8.90503V333.802H33.9845V333.554Z" fill="#EBEBEB"/>
<path d="M49.1187 333.554H42.8328V333.802H49.1187V333.554Z" fill="#EBEBEB"/>
<path d="M162.584 337.744H69.5554V337.992H162.584V337.744Z" fill="#EBEBEB"/>
<path d="M174.351 280.833H-17.3956C-18.8977 280.83 -20.3374 280.232 -21.3986 279.168C-22.4599 278.105 -23.0559 276.665 -23.0559 275.163V5.62063C-23.0428 4.12711 -22.441 2.69907 -21.3812 1.64668C-20.3214 0.594295 -18.8891 0.00255847 -17.3956 0H174.351C175.855 0 177.297 0.597403 178.361 1.66079C179.424 2.72417 180.022 4.16643 180.022 5.67028V275.163C180.022 276.666 179.424 278.109 178.361 279.172C177.297 280.235 175.855 280.833 174.351 280.833ZM-17.3956 0.19861C-18.8318 0.20124 -20.2084 0.773646 -21.2231 1.79019C-22.2378 2.80673 -22.8076 4.18434 -22.8076 5.62063V275.163C-22.8076 276.599 -22.2378 277.976 -21.2231 278.993C-20.2084 280.009 -18.8318 280.582 -17.3956 280.585H174.351C175.788 280.582 177.166 280.01 178.182 278.994C179.199 277.977 179.771 276.6 179.773 275.163V5.62063C179.771 4.18342 179.199 2.80584 178.182 1.78958C177.166 0.773323 175.788 0.201235 174.351 0.19861H-17.3956Z" fill="#EBEBEB"/>
<path d="M389.157 280.833H197.4C195.897 280.83 194.456 280.232 193.393 279.169C192.331 278.106 191.732 276.666 191.73 275.163V5.62063C191.745 4.12621 192.349 2.69818 193.411 1.64606C194.472 0.593948 195.906 0.00253056 197.4 0H389.157C390.649 0.00516829 392.078 0.59806 393.136 1.65017C394.194 2.70228 394.794 4.12883 394.807 5.62063V275.163C394.807 276.663 394.213 278.102 393.153 279.165C392.094 280.228 390.657 280.828 389.157 280.833ZM197.4 0.19861C195.963 0.201235 194.585 0.773323 193.569 1.78958C192.553 2.80584 191.981 4.18342 191.978 5.62063V275.163C191.981 276.6 192.553 277.977 193.569 278.994C194.585 280.01 195.963 280.582 197.4 280.585H389.157C390.594 280.582 391.972 280.01 392.988 278.994C394.004 277.977 394.576 276.6 394.579 275.163V5.62063C394.576 4.18342 394.004 2.80584 392.988 1.78958C391.972 0.773323 390.594 0.201235 389.157 0.19861H197.4Z" fill="#EBEBEB"/>
<path d="M129.287 44.9253H35.2756V256.712H129.287V44.9253Z" fill="#F5F5F5"/>
<path d="M125.742 252.74L125.742 48.8975L38.8208 48.8975L38.8208 252.74H125.742Z" fill="#FAFAFA"/>
<path d="M83.2795 47.8746H81.2834V254.726H83.2795V47.8746Z" fill="#F5F5F5"/>
<path d="M131.452 42.1647H33.1011V52.1348H131.452V42.1647Z" fill="#F5F5F5"/>
<path d="M131.452 53.2371H33.1011V54.4188H131.452V53.2371Z" fill="#F5F5F5"/>
<path d="M131.452 55.9183H33.1011V57.1001H131.452V55.9183Z" fill="#F5F5F5"/>
<path d="M131.452 58.5995H33.1011V59.7812H131.452V58.5995Z" fill="#F5F5F5"/>
<path d="M131.452 61.2808H33.1011V62.4625H131.452V61.2808Z" fill="#F5F5F5"/>
<path d="M131.452 63.962H33.1011V65.1437H131.452V63.962Z" fill="#F5F5F5"/>
<path d="M131.452 66.6432H33.1011V67.8249H131.452V66.6432Z" fill="#F5F5F5"/>
<path d="M131.452 69.3244H33.1011V70.5061H131.452V69.3244Z" fill="#F5F5F5"/>
<path d="M131.452 72.0056H33.1011V73.1873H131.452V72.0056Z" fill="#F5F5F5"/>
<path d="M131.452 74.6868H33.1011V75.8685H131.452V74.6868Z" fill="#F5F5F5"/>
<path d="M131.452 77.368H33.1011V78.5498H131.452V77.368Z" fill="#F5F5F5"/>
<path d="M131.452 80.0493H33.1011V81.231H131.452V80.0493Z" fill="#F5F5F5"/>
<path d="M131.452 82.7305H33.1011V83.9122H131.452V82.7305Z" fill="#F5F5F5"/>
<path d="M131.452 85.4117H33.1011V86.5934H131.452V85.4117Z" fill="#F5F5F5"/>
<path d="M131.452 88.0929H33.1011V89.2746H131.452V88.0929Z" fill="#F5F5F5"/>
<path d="M131.452 90.7741H33.1011V91.9558H131.452V90.7741Z" fill="#F5F5F5"/>
<path d="M131.452 93.4653H33.1011V94.6471H131.452V93.4653Z" fill="#F5F5F5"/>
<path d="M131.452 96.1465H33.1011V97.3283H131.452V96.1465Z" fill="#F5F5F5"/>
<path d="M131.452 98.8278H33.1011V100.009H131.452V98.8278Z" fill="#F5F5F5"/>
<path d="M240.587 44.9253H146.576V256.712H240.587V44.9253Z" fill="#F5F5F5"/>
<path d="M237.052 252.74V48.8975L150.131 48.8975V252.74H237.052Z" fill="#FAFAFA"/>
<path d="M194.58 47.8746H192.584V254.726H194.58V47.8746Z" fill="#F5F5F5"/>
<path d="M242.762 42.1647H144.411V52.1348H242.762V42.1647Z" fill="#F5F5F5"/>
<path d="M242.762 53.2371H144.411V54.4188H242.762V53.2371Z" fill="#F5F5F5"/>
<path d="M242.762 55.9183H144.411V57.1001H242.762V55.9183Z" fill="#F5F5F5"/>
<path d="M242.762 58.5995H144.411V59.7812H242.762V58.5995Z" fill="#F5F5F5"/>
<path d="M242.762 61.2808H144.411V62.4625H242.762V61.2808Z" fill="#F5F5F5"/>
<path d="M242.762 63.962H144.411V65.1437H242.762V63.962Z" fill="#F5F5F5"/>
<path d="M242.762 66.6432H144.411V67.8249H242.762V66.6432Z" fill="#F5F5F5"/>
<path d="M242.762 69.3244H144.411V70.5061H242.762V69.3244Z" fill="#F5F5F5"/>
<path d="M242.762 72.0056H144.411V73.1873H242.762V72.0056Z" fill="#F5F5F5"/>
<path d="M242.762 74.6868H144.411V75.8685H242.762V74.6868Z" fill="#F5F5F5"/>
<path d="M242.762 77.368H144.411V78.5498H242.762V77.368Z" fill="#F5F5F5"/>
<path d="M242.762 80.0493H144.411V81.231H242.762V80.0493Z" fill="#F5F5F5"/>
<path d="M242.762 82.7305H144.411V83.9122H242.762V82.7305Z" fill="#F5F5F5"/>
<path d="M242.762 85.4117H144.411V86.5934H242.762V85.4117Z" fill="#F5F5F5"/>
<path d="M242.762 88.0929H144.411V89.2746H242.762V88.0929Z" fill="#F5F5F5"/>
<path d="M242.762 90.7741H144.411V91.9558H242.762V90.7741Z" fill="#F5F5F5"/>
<path d="M242.762 93.4653H144.411V94.6471H242.762V93.4653Z" fill="#F5F5F5"/>
<path d="M242.762 96.1465H144.411V97.3283H242.762V96.1465Z" fill="#F5F5F5"/>
<path d="M242.762 98.8278H144.411V100.009H242.762V98.8278Z" fill="#F5F5F5"/>
<path d="M351.898 44.9253H257.886V256.712H351.898V44.9253Z" fill="#F5F5F5"/>
<path d="M348.353 252.74V48.8975L261.431 48.8975V252.74H348.353Z" fill="#FAFAFA"/>
<path d="M305.89 47.8746H303.894V254.726H305.89V47.8746Z" fill="#F5F5F5"/>
<path d="M354.063 42.1647H255.712V52.1348H354.063V42.1647Z" fill="#F5F5F5"/>
<path d="M354.063 53.2371H255.712V54.4188H354.063V53.2371Z" fill="#F5F5F5"/>
<path d="M354.063 55.9183H255.712V57.1001H354.063V55.9183Z" fill="#F5F5F5"/>
<path d="M354.063 58.5995H255.712V59.7812H354.063V58.5995Z" fill="#F5F5F5"/>
<path d="M354.063 61.2808H255.712V62.4625H354.063V61.2808Z" fill="#F5F5F5"/>
<path d="M354.063 63.962H255.712V65.1437H354.063V63.962Z" fill="#F5F5F5"/>
<path d="M354.063 66.6432H255.712V67.8249H354.063V66.6432Z" fill="#F5F5F5"/>
<path d="M354.063 69.3244H255.712V70.5061H354.063V69.3244Z" fill="#F5F5F5"/>
<path d="M354.063 72.0056H255.712V73.1873H354.063V72.0056Z" fill="#F5F5F5"/>
<path d="M354.063 74.6868H255.712V75.8685H354.063V74.6868Z" fill="#F5F5F5"/>
<path d="M354.063 77.368H255.712V78.5498H354.063V77.368Z" fill="#F5F5F5"/>
<path d="M354.063 80.0493H255.712V81.231H354.063V80.0493Z" fill="#F5F5F5"/>
<path d="M354.063 82.7305H255.712V83.9122H354.063V82.7305Z" fill="#F5F5F5"/>
<path d="M354.063 85.4117H255.712V86.5934H354.063V85.4117Z" fill="#F5F5F5"/>
<path d="M354.063 88.0929H255.712V89.2746H354.063V88.0929Z" fill="#F5F5F5"/>
<path d="M354.063 90.7741H255.712V91.9558H354.063V90.7741Z" fill="#F5F5F5"/>
<path d="M354.063 93.4653H255.712V94.6471H354.063V93.4653Z" fill="#F5F5F5"/>
<path d="M354.063 96.1465H255.712V97.3283H354.063V96.1465Z" fill="#F5F5F5"/>
<path d="M354.063 98.8278H255.712V100.009H354.063V98.8278Z" fill="#F5F5F5"/>
<path d="M347.985 298.976C347.985 298.976 353.01 288.003 347.27 277.188C341.53 266.374 339.852 263.832 343.517 261.607C347.181 259.383 348.859 270.267 348.859 270.267C350.675 265.355 350.863 259.99 349.395 254.964C346.853 247.139 345.254 234.388 348.73 233.028C352.206 231.667 349.395 248.916 352.424 254.815C353.971 250.683 354.972 246.366 355.403 241.975C355.82 235.689 355.165 225.649 357.916 223.107C360.666 220.565 362.424 222.313 359.723 236.185C358.1 244.473 357.202 252.886 357.042 261.329C357.042 261.329 363 243.137 367.022 242.601C371.044 242.064 370.994 247.963 367.588 253.077C364.182 258.191 357.548 267.337 356.466 272.054C356.466 272.054 363.02 258.36 368.909 262.561C374.797 266.761 363.775 275.023 358.869 278.012C353.963 281.002 350.547 299.73 350.547 299.73L347.985 298.976Z" fill="#E0E0E0"/>
<path d="M351.957 303.474C351.957 303.474 347.062 292.431 352.95 281.707C358.839 270.982 360.527 268.449 356.923 266.185C353.318 263.921 351.481 274.755 351.481 274.755C351.481 274.755 348.502 267.228 351.123 259.443C353.745 251.657 355.522 238.936 352.057 237.516C348.591 236.096 351.203 253.405 348.084 259.244C346.595 255.08 345.654 250.741 345.284 246.334C344.946 240.048 345.721 230.019 343 227.407C340.279 224.795 338.502 226.543 341.014 240.456C342.536 248.765 343.334 257.191 343.397 265.639C343.397 265.639 337.648 247.357 333.646 246.771C329.644 246.185 329.584 252.074 332.95 257.238C336.317 262.402 342.821 271.657 343.874 276.384C343.874 276.384 337.489 262.591 331.55 266.702C325.612 270.813 336.516 279.244 341.401 282.302C346.287 285.361 349.465 304.149 349.465 304.149L351.957 303.474Z" fill="#EBEBEB"/>
<path d="M329.365 295.609H369.822L366.545 324.547H332.643L329.365 295.609Z" fill="#EBEBEB"/>
<path d="M26.1495 293.544C26.0006 292.551 22.654 269.423 29.367 261.429C30.0376 260.588 30.8854 259.905 31.8501 259.43C32.8148 258.954 33.8726 258.698 34.9479 258.678C48.5129 258.36 50.3699 269.264 50.3897 269.373L48.781 269.621C48.7214 269.224 47.1127 260.009 34.9876 260.297C34.1415 260.309 33.3089 260.51 32.551 260.887C31.7931 261.263 31.1293 261.805 30.6083 262.471C24.3521 269.909 27.7185 293.067 27.7483 293.305L26.1495 293.544Z" fill="#EBEBEB"/>
<path d="M25.3352 292.491L23.7165 292.441C23.7165 292.223 24.2528 271.111 13.8457 266.751C3.65705 262.481 -0.930815 271.26 -1.11949 271.637L-2.56934 270.912C-2.50975 270.803 2.86261 260.396 14.4713 265.262C25.9012 270.048 25.3948 291.577 25.3352 292.491Z" fill="#EBEBEB"/>
<path d="M25.3947 294.15C25.3947 293.812 25.2954 260.386 18.791 250.654C12.5447 241.28 2.45539 245.689 2.02838 245.888L1.36304 244.418C1.4822 244.358 13.1107 239.224 20.1415 249.761C26.9141 259.929 27.0134 292.749 27.0134 294.15H25.3947Z" fill="#EBEBEB"/>
<path d="M36.8943 259.482C36.8943 259.482 30.936 261.667 32.7334 266.821C34.5308 271.975 53.2001 280.455 53.2001 280.455C53.2001 280.455 61.0352 273.266 53.8356 261.588C46.636 249.909 37.0532 255.798 36.8943 259.482Z" fill="#E0E0E0"/>
<path d="M18.4436 248.897C18.4436 248.897 22.6541 248.45 22.3165 245.917C21.9788 243.385 5.97095 236.762 -3.50269 247.427C-3.50269 247.427 2.54495 257.814 11.2837 257.943C20.0225 258.072 18.4436 248.897 18.4436 248.897Z" fill="#E0E0E0"/>
<path d="M14.1636 266.007C14.1636 266.007 17.0633 263.663 13.9352 262.521C10.8071 261.379 -4.56523 261.707 -4.72412 276.92C-4.72412 276.92 13.1507 279.899 15.385 274.1C17.6194 268.3 14.1636 266.007 14.1636 266.007Z" fill="#E0E0E0"/>
<path d="M40.0721 324.547H12.2967L9.30762 294.15H43.0711L40.0721 324.547Z" fill="#EBEBEB"/>
<path d="M44.5508 290.793H7.81812V297.506H44.5508V290.793Z" fill="#E0E0E0"/>
<path d="M187.261 369.968C293.599 369.968 379.802 364.935 379.802 358.727C379.802 352.519 293.599 347.486 187.261 347.486C80.9234 347.486 -5.28027 352.519 -5.28027 358.727C-5.28027 364.935 80.9234 369.968 187.261 369.968Z" fill="#F5F5F5"/>
<path d="M135.278 171.584L143.924 167.271C143.924 167.271 145.979 164.485 146.536 164.389C147.094 164.293 157.477 165.657 157.477 165.657C157.477 165.657 156.344 168.952 155.326 169.961C154.307 170.969 147.641 169.711 147.641 169.711L139.149 173.889L135.278 171.584Z" fill="#FFC5B0"/>
<path d="M127.901 132.959C125.586 135.197 123.415 136.916 126.777 140.019C130.139 143.122 129.505 148.242 125.212 150.528C120.918 152.814 99.4006 160.624 91.4374 151.623C83.4741 142.622 89.4009 136.465 93.3585 134.784C97.3161 133.103 93.5026 128.684 93.1376 125.476C92.7726 122.268 107.47 109.146 114.328 108.31C121.187 107.475 125.855 113.382 125.73 119.376C125.605 125.37 131.686 129.309 127.901 132.959Z" fill="#263238"/>
<path d="M119.563 149.25C119.093 149.25 122.205 169.855 123.041 172.938C123.876 176.022 141.1 167.732 141.1 167.732L143.885 171.987C143.885 171.987 128.804 184.696 122.272 183.274C115.74 181.853 110.87 159.336 110.87 159.336L119.563 149.25Z" fill="#1F7B76"/>
<path opacity="0.7" d="M143.885 171.987C143.885 171.987 128.804 184.696 122.272 183.265C119.659 182.688 117.306 178.711 115.423 174.149C113.581 169.463 112.091 164.647 110.966 159.74C110.909 159.442 110.87 159.288 110.87 159.288L111.831 158.193L115.337 154.12L119.563 149.231C119.237 150.028 122.243 169.874 123.06 172.89C123.876 175.907 141.119 167.684 141.119 167.684L143.885 171.987Z" fill="white"/>
<path opacity="0.2" d="M115.423 174.149C113.581 169.463 112.091 164.647 110.966 159.74C111.235 159.202 111.514 158.683 111.811 158.193C112.701 156.618 113.892 155.234 115.318 154.12L115.452 154.024C115.452 154.024 119.198 164.812 115.423 174.149Z" fill="black"/>
<path d="M75.7415 219.142L102.167 222.879L106.884 154.706L80.4195 157.857L75.7415 219.142Z" fill="#1F7B76"/>
<path opacity="0.4" d="M75.7415 219.142L102.167 222.879L106.884 154.706L80.4195 157.857L75.7415 219.142Z" fill="white"/>
<path d="M88.7958 348.495H82.4463L84.3963 339.715L86.1926 331.656L94.1462 330.436L91.3221 339.994L88.7958 348.495Z" fill="#FFC5B0"/>
<path opacity="0.2" d="M91.2551 340.186L84.3389 339.888L86.164 331.742L94.1368 330.474L91.2551 340.186Z" fill="black"/>
<path d="M75.6454 348.495H69.2959L71.2459 339.715L73.0422 331.656L80.9958 330.436L78.1717 339.994L75.6454 348.495Z" fill="#FFC5B0"/>
<path opacity="0.2" d="M78.1044 340.186L71.1882 339.888L73.0133 331.742L80.9862 330.474L78.1044 340.186Z" fill="black"/>
<path d="M64.1569 180.661C64.1569 180.661 63.8304 181.343 63.3212 182.583C60.9294 188.49 54.3782 207.154 56.8277 228.787C58.2782 241.582 72.418 264.607 74.5217 277.152C76.9711 291.763 70.5544 317.497 72.2066 336.391L82.3024 337.275L85.3474 335.354L93.9927 334.057C93.9927 334.057 116.528 282.8 116.086 265.078C115.769 251.159 93.9927 201.266 93.9927 201.266L96.0676 182.813" fill="#263238"/>
<path opacity="0.2" d="M86.942 335.152L85.3474 335.392L82.7634 337.025C84.4156 331.262 98.6515 281.427 98.9012 270.457C99.1894 258.795 82.5713 217.433 82.5713 217.433L86.8267 209.748L86.1831 221.448C86.1831 221.448 101.879 253.608 103.118 270.438C104.338 286.595 88.2483 331.521 86.942 335.152Z" fill="black"/>
<path d="M80.6595 348.216C80.6595 347.515 89.3048 348.062 89.3048 348.062C89.3048 348.062 94.6072 353.451 99.7464 354.662C104.885 355.872 102.013 358.956 96.2691 358.956H82.0236C77.9411 358.956 80.4866 355.478 80.6595 348.216Z" fill="#263238"/>
<path d="M90.2366 349.177C90.2098 349.163 90.1867 349.144 90.1694 349.119V349.062C90.1639 349.036 90.1639 349.01 90.1694 348.985C90.1647 348.956 90.1647 348.927 90.1694 348.898C90.1694 348.793 90.9282 346.804 92.0905 346.314C92.2658 346.236 92.4557 346.195 92.6477 346.195C92.8397 346.195 93.0296 346.236 93.2048 346.314C93.5987 346.506 93.7908 346.747 93.7716 347.044C93.7716 347.496 93.1376 347.947 92.4364 348.322C93.084 348.216 93.7483 348.289 94.3575 348.533C94.4703 348.593 94.5689 348.676 94.6468 348.777C94.7246 348.878 94.78 348.995 94.809 349.119C94.8728 349.274 94.8877 349.444 94.8516 349.607C94.8155 349.77 94.7302 349.919 94.6073 350.032C94.3843 350.183 94.1177 350.258 93.8484 350.243C92.5922 350.098 91.3704 349.737 90.2366 349.177ZM91.0243 349.033C92.2923 349.571 93.906 350.041 94.2807 349.715C94.2807 349.715 94.4248 349.59 94.3383 349.254C94.3187 349.19 94.2865 349.131 94.2436 349.079C94.2007 349.028 94.148 348.986 94.0886 348.956C93.7694 348.811 93.4202 348.745 93.0703 348.764C92.3809 348.783 91.6952 348.873 91.0243 349.033ZM92.225 346.737C91.5444 347.174 91.025 347.822 90.7457 348.581C92.0233 348.101 93.2528 347.429 93.2721 347.044C93.2721 346.929 93.0799 346.814 92.9647 346.756C92.8411 346.698 92.7072 346.666 92.5708 346.66C92.4516 346.663 92.3341 346.689 92.225 346.737Z" fill="#1F7B76"/>
<path d="M82.3022 333.942L96.5669 331.992L95.3758 337.304L83.599 338.783L82.3022 333.942Z" fill="#1F7B76"/>
<path d="M67.5094 348.216C67.5094 347.515 76.1546 348.062 76.1546 348.062C76.1546 348.062 81.4475 353.451 86.5866 354.662C91.7257 355.872 88.8536 358.956 83.1093 358.956H68.8926C64.7909 358.956 67.3269 355.478 67.5094 348.216Z" fill="#263238"/>
<path d="M77.0957 349.177C77.0646 349.166 77.0376 349.146 77.0188 349.119V349.062C77.0134 349.036 77.0134 349.01 77.0188 348.985C77.01 348.957 77.01 348.926 77.0188 348.898C77.0188 348.793 77.7777 346.804 78.94 346.314C79.1153 346.236 79.3051 346.195 79.4972 346.195C79.6892 346.195 79.879 346.236 80.0543 346.314C80.4481 346.506 80.6402 346.747 80.621 347.044C80.621 347.496 79.9871 347.947 79.2858 348.322C79.9335 348.216 80.5979 348.289 81.207 348.533C81.319 348.595 81.4175 348.679 81.4967 348.78C81.5759 348.88 81.6341 348.996 81.6681 349.119C81.7294 349.275 81.742 349.445 81.7043 349.608C81.6665 349.771 81.5802 349.919 81.4568 350.032C81.2344 350.185 80.9673 350.259 80.6979 350.243C79.4443 350.1 78.2254 349.739 77.0957 349.177ZM77.8834 349.033C79.1513 349.571 80.7651 350.041 81.1301 349.715C81.1301 349.715 81.2742 349.59 81.1878 349.254C81.1682 349.19 81.136 349.131 81.0931 349.079C81.0502 349.028 80.9974 348.986 80.938 348.956C80.637 348.819 80.3082 348.753 79.9774 348.764C79.2751 348.779 78.5763 348.87 77.893 349.033H77.8834ZM79.0745 346.737C78.3938 347.174 77.8745 347.822 77.5952 348.581C78.8728 348.101 80.1023 347.429 80.1215 347.044C80.1215 346.929 79.9294 346.814 79.8141 346.756C79.6912 346.696 79.5569 346.664 79.4203 346.66C79.3011 346.663 79.1836 346.689 79.0745 346.737Z" fill="#1F7B76"/>
<path d="M70.1221 333.942L85.3473 331.992L84.0794 337.304L71.5053 338.783L70.1221 333.942Z" fill="#1F7B76"/>
<path d="M66.0011 176.512L64.5122 180.805L94.5593 188.749L96.3268 183.678L66.0011 176.512Z" fill="black"/>
<path d="M76.3116 178.068L74.8362 177.638L72.6415 185.163L74.1169 185.593L76.3116 178.068Z" fill="#263238"/>
<path d="M89.0339 182.298L82.437 180.644L81.183 185.648L87.7799 187.301L89.0339 182.298Z" fill="white"/>
<path d="M94.8682 182.34L93.3928 181.909L91.1968 189.434L92.6722 189.864L94.8682 182.34Z" fill="#263238"/>
<path d="M119.093 149.25C117.812 150.954 116.598 152.555 115.452 154.053C111.072 159.913 107.96 164.072 105.568 167.425C102.888 171.035 100.562 174.895 98.6227 178.952C97.8446 180.604 97.0761 182.4 96.2212 184.513L66.0012 176.454C71.6879 155.321 76.5677 144.255 78.9979 138.732L79.0748 138.559C79.8249 136.905 81.1366 135.57 82.7772 134.791C84.4178 134.012 86.2812 133.84 88.037 134.304C90.2079 134.89 92.7439 135.629 95.0973 136.427C99.4827 138.046 103.749 139.972 107.863 142.19C111.771 144.271 115.524 146.631 119.093 149.25Z" fill="#1F7B76"/>
<path d="M88.0369 134.361C84.0601 133.314 89.91 147.3 98.9491 150.028C107.988 152.756 113.425 149.404 113.435 146.81C113.444 144.217 100.035 137.57 88.0369 134.361Z" fill="#FFC5B0"/>
<path d="M90.6881 134.102C90.6881 134.102 93.7236 147.8 90.6881 157.857C87.6527 167.914 62.8312 228.777 62.8312 228.777H49.6423C49.6423 228.777 53.7248 198.74 65.9723 172.938C65.9723 172.938 76.9806 138.271 77.2303 136.743C77.4801 135.216 83.3397 132.767 90.6881 134.102Z" fill="#1F7B76"/>
<path d="M107.988 141.412C107.988 141.412 108.382 155.446 103.186 167.886L102.158 220.91C102.158 220.91 106.423 193.668 108.305 172.938L119.554 149.25L107.988 141.412Z" fill="#1F7B76"/>
<path opacity="0.8" d="M90.6881 157.857C87.6431 167.905 62.8312 228.777 62.8312 228.777H49.6423C49.6423 228.777 53.379 201.314 64.4353 176.358C64.9444 175.215 65.4632 174.072 66.0011 172.938C66.0011 172.938 67.0481 169.644 68.4986 165.033C71.7646 154.706 77.0862 137.8 77.2591 136.744C77.5089 135.226 83.3396 132.719 90.7073 134.102C90.6881 134.102 93.7236 147.8 90.6881 157.857Z" fill="white"/>
<path opacity="0.8" d="M107.988 141.412C107.988 141.412 108.382 155.446 103.186 167.886L102.158 220.91C102.158 220.91 106.423 193.668 108.305 172.938L119.554 149.25L107.988 141.412Z" fill="white"/>
<path d="M108.315 140.23C108.315 140.23 112.311 143.458 114.943 152.007L109.592 155.821L110.889 159.317L103.205 171.565C102.872 168.386 103.08 165.174 103.819 162.065C105.03 157.521 108.68 144.102 108.315 140.23Z" fill="#1F7B76"/>
<path d="M92.0427 134.102C94.8572 145.52 93.0955 157.586 87.1341 167.722C87.1341 167.722 86.8363 154.947 85.1073 150.288L89.2282 148.645L81.092 143.333C81.092 143.333 87.6913 132.526 92.0427 134.102Z" fill="#1F7B76"/>
<path opacity="0.7" d="M108.315 140.23C108.315 140.23 112.311 143.458 114.943 152.007L109.592 155.821L110.889 159.317L103.205 171.565C102.872 168.386 103.08 165.174 103.819 162.065C105.03 157.521 108.68 144.102 108.315 140.23Z" fill="white"/>
<path opacity="0.7" d="M92.0427 134.102C94.8572 145.52 93.0955 157.586 87.1341 167.722C87.1341 167.722 86.8363 154.947 85.1073 150.288L89.2282 148.645L81.092 143.333C81.092 143.333 87.6913 132.526 92.0427 134.102Z" fill="white"/>
<path opacity="0.2" d="M77.0094 181.161C73.9163 181.449 68.5178 178.74 64.4353 176.358C64.9444 175.215 65.4631 174.072 66.0011 172.938C66.0011 172.938 67.0481 169.644 68.4986 165.033C73.4264 171.075 80.7749 180.796 77.0094 181.161Z" fill="black"/>
<path d="M79.1899 200.478C79.1899 200.478 82.1774 200.891 87.9313 195.387C93.6852 189.883 101.379 183.428 103.243 184.312L120.284 192.534L97.297 208.864L79.1899 200.478Z" fill="#1F7B76"/>
<path opacity="0.7" d="M79.1899 200.478C79.1899 200.478 82.1774 200.891 87.9313 195.387C93.6852 189.883 101.379 183.428 103.243 184.312L120.284 192.534L97.297 208.864L79.1899 200.478Z" fill="white"/>
<path d="M79.6222 203.85L103.166 185.416C103.319 185.297 103.502 185.222 103.695 185.198C103.888 185.174 104.084 185.203 104.261 185.282L121.994 193.13C122.068 193.164 122.133 193.216 122.181 193.283C122.229 193.349 122.259 193.427 122.268 193.509C122.276 193.59 122.264 193.672 122.231 193.748C122.198 193.823 122.146 193.888 122.08 193.937L98.8243 211.246C98.6801 211.354 98.5113 211.423 98.3335 211.448C98.1556 211.473 97.9743 211.453 97.806 211.391L79.7471 204.618C79.6775 204.586 79.6169 204.537 79.5705 204.476C79.5242 204.415 79.4935 204.343 79.4812 204.267C79.4689 204.191 79.4753 204.114 79.4999 204.041C79.5244 203.968 79.5664 203.903 79.6222 203.85Z" fill="#1F7B76"/>
<path d="M114.443 189.23C114.655 188.913 114.924 188.269 114.299 187.991C113.997 187.903 113.679 187.885 113.369 187.94C113.059 187.995 112.766 188.121 112.513 188.308C111.6 187.885 110.745 187.482 110.14 187.213C110.076 187.185 110.006 187.177 109.938 187.189C109.87 187.201 109.806 187.233 109.756 187.28L108.277 188.634C108.212 188.694 108.163 188.77 108.135 188.853C108.107 188.937 108.1 189.026 108.115 189.113C108.131 189.2 108.168 189.282 108.223 189.351C108.277 189.42 108.349 189.474 108.43 189.509L114.472 192.092C114.687 192.181 114.922 192.211 115.152 192.177C115.382 192.143 115.599 192.047 115.779 191.9L116.979 190.892C117.017 190.863 117.046 190.825 117.065 190.781C117.084 190.738 117.091 190.69 117.086 190.643C117.081 190.596 117.065 190.551 117.038 190.512C117.01 190.473 116.974 190.442 116.931 190.421L114.443 189.23ZM114.04 188.5C114.232 188.625 114.088 188.836 113.944 188.99L113.233 188.654C113.502 188.481 113.858 188.375 114.04 188.481V188.5Z" fill="#263238"/>
<path d="M84.6173 184.571L88.5461 189.825C88.5461 189.825 92.3885 190.584 93.349 191.593C95.1244 193.602 96.7038 195.777 98.0655 198.086C98.4401 199.095 92.7823 201.881 92.0619 201.506C91.3414 201.131 87.307 195.426 86.7979 194.407C86.6508 194.085 86.5747 193.734 86.5747 193.38C86.5747 193.025 86.6508 192.674 86.7979 192.352L82.6289 187.549L84.6173 184.571Z" fill="#FFC5B0"/>
<path d="M77.2592 136.744C80.8037 138.665 81.1015 146.292 81.1015 146.292C81.1015 146.292 72.9653 162.074 72.4562 164.543C71.9471 167.012 87.499 187.049 87.499 187.049L83.8488 190.45C83.8488 190.45 65.0982 170.354 63.0713 165.475C61.0445 160.595 77.2592 136.744 77.2592 136.744Z" fill="#1F7B76"/>
<path opacity="0.7" d="M77.2592 136.744C80.8037 138.665 81.1015 146.292 81.1015 146.292C81.1015 146.292 72.9653 162.074 72.4562 164.543C71.9471 167.012 87.499 187.049 87.499 187.049L83.8488 190.45C83.8488 190.45 65.0982 170.354 63.0713 165.475C61.0445 160.595 77.2592 136.744 77.2592 136.744Z" fill="white"/>
<path d="M121.561 176.665C121.561 177.163 121.414 177.65 121.137 178.064C120.861 178.478 120.468 178.8 120.008 178.991C119.548 179.181 119.042 179.231 118.554 179.134C118.065 179.037 117.617 178.797 117.265 178.445C116.913 178.093 116.673 177.645 116.576 177.156C116.479 176.668 116.529 176.162 116.719 175.702C116.91 175.242 117.232 174.849 117.646 174.573C118.06 174.296 118.547 174.149 119.045 174.149C119.712 174.149 120.352 174.414 120.824 174.886C121.296 175.358 121.561 175.998 121.561 176.665Z" fill="#263238"/>
<g opacity="0.6">
<path d="M121.561 176.665C121.561 177.163 121.414 177.65 121.137 178.064C120.861 178.478 120.468 178.8 120.008 178.991C119.548 179.181 119.042 179.231 118.554 179.134C118.065 179.037 117.617 178.797 117.265 178.445C116.913 178.093 116.673 177.645 116.576 177.156C116.479 176.668 116.529 176.162 116.719 175.702C116.91 175.242 117.232 174.849 117.646 174.573C118.06 174.296 118.547 174.149 119.045 174.149C119.712 174.149 120.352 174.414 120.824 174.886C121.296 175.358 121.561 175.998 121.561 176.665Z" fill="white"/>
</g>
<path d="M109.467 155.917C109.54 154.363 109.717 152.817 109.996 151.287C110.899 145.581 111.917 139.107 103.387 135.418C100.813 134.304 98.5264 134.323 96.5956 135.485C92.2249 138.117 91.1011 145.725 90.8801 147.713C90.1198 147.623 89.3488 147.71 88.6274 147.967C87.906 148.223 87.2535 148.643 86.7208 149.193C83.5989 152.526 85.0206 160.201 85.0878 160.528C85.0993 160.589 85.1229 160.648 85.1572 160.7C85.1916 160.752 85.236 160.797 85.2878 160.832C85.3397 160.867 85.398 160.891 85.4593 160.903C85.5206 160.915 85.5837 160.915 85.6449 160.902C85.7696 160.879 85.8799 160.807 85.9519 160.703C86.0238 160.598 86.0516 160.47 86.0292 160.345C86.0292 160.268 84.6267 152.833 87.4124 149.856C87.9058 149.358 88.5158 148.992 89.187 148.791C89.8581 148.589 90.569 148.559 91.2548 148.703C91.9755 148.749 92.6748 148.967 93.2945 149.338C93.9143 149.709 94.4368 150.222 94.8185 150.835C97.2296 154.745 94.4919 162.535 94.4631 162.612C94.4229 162.733 94.4316 162.865 94.4872 162.98C94.5428 163.095 94.641 163.183 94.7609 163.227C94.8149 163.237 94.8702 163.237 94.9242 163.227C95.0222 163.224 95.1174 163.193 95.1977 163.136C95.2779 163.08 95.3398 163.001 95.3757 162.91C95.4909 162.574 98.2574 154.61 95.635 150.307C95.2175 149.633 94.6569 149.059 93.9929 148.626C93.3289 148.193 92.5778 147.911 91.7927 147.8C92.0136 145.946 93.1087 138.655 97.0471 136.273C98.6993 135.312 100.688 135.312 102.964 136.273C110.812 139.664 109.9 145.485 109.006 151.104C108.721 152.692 108.541 154.296 108.468 155.907C108.353 163.592 110.822 175.993 117.969 176.252V175.292C111.341 175.032 109.371 162.132 109.467 155.917Z" fill="#263238"/>
<path opacity="0.2" d="M109.467 155.917C109.54 154.363 109.717 152.817 109.996 151.287C110.899 145.581 111.917 139.107 103.387 135.418C100.813 134.304 98.5264 134.323 96.5956 135.485C92.2249 138.117 91.1011 145.725 90.8801 147.713C90.1198 147.623 89.3488 147.71 88.6274 147.967C87.906 148.223 87.2535 148.643 86.7208 149.193C83.5989 152.526 85.0206 160.201 85.0878 160.528C85.0993 160.589 85.1229 160.648 85.1572 160.7C85.1916 160.752 85.236 160.797 85.2878 160.832C85.3397 160.867 85.398 160.891 85.4593 160.903C85.5206 160.915 85.5837 160.915 85.6449 160.902C85.7696 160.879 85.8799 160.807 85.9519 160.703C86.0238 160.598 86.0516 160.47 86.0292 160.345C86.0292 160.268 84.6267 152.833 87.4124 149.856C87.9058 149.358 88.5158 148.992 89.187 148.791C89.8581 148.589 90.569 148.559 91.2548 148.703C91.9755 148.749 92.6748 148.967 93.2945 149.338C93.9143 149.709 94.4368 150.222 94.8185 150.835C97.2296 154.745 94.4919 162.535 94.4631 162.612C94.4229 162.733 94.4316 162.865 94.4872 162.98C94.5428 163.095 94.641 163.183 94.7609 163.227C94.8149 163.237 94.8702 163.237 94.9242 163.227C95.0222 163.224 95.1174 163.193 95.1977 163.136C95.2779 163.08 95.3398 163.001 95.3757 162.91C95.4909 162.574 98.2574 154.61 95.635 150.307C95.2175 149.633 94.6569 149.059 93.9929 148.626C93.3289 148.193 92.5778 147.911 91.7927 147.8C92.0136 145.946 93.1087 138.655 97.0471 136.273C98.6993 135.312 100.688 135.312 102.964 136.273C110.812 139.664 109.9 145.485 109.006 151.104C108.721 152.692 108.541 154.296 108.468 155.907C108.353 163.592 110.822 175.993 117.969 176.252V175.292C111.341 175.032 109.371 162.132 109.467 155.917Z" fill="white"/>
<path d="M95.4431 162.036L94.1175 161.767C94.1175 161.767 93.1569 163.88 93.935 164.255C94.713 164.629 95.885 163.14 95.4431 162.036Z" fill="#263238"/>
<g opacity="0.6">
<path d="M95.4431 162.036L94.1175 161.767C94.1175 161.767 93.1569 163.88 93.935 164.255C94.713 164.629 95.885 163.14 95.4431 162.036Z" fill="white"/>
</g>
<path d="M85.3474 159.663H86.6922C86.6922 159.663 87.2686 161.94 86.3752 162.132C85.4819 162.324 84.6846 160.624 85.3474 159.663Z" fill="#263238"/>
<g opacity="0.6">
<path d="M85.3474 159.663H86.6922C86.6922 159.663 87.2686 161.94 86.3752 162.132C85.4819 162.324 84.6846 160.624 85.3474 159.663Z" fill="white"/>
</g>
<path d="M118.497 176.973C119.277 176.973 119.909 176.341 119.909 175.561C119.909 174.781 119.277 174.149 118.497 174.149C117.717 174.149 117.085 174.781 117.085 175.561C117.085 176.341 117.717 176.973 118.497 176.973Z" fill="#263238"/>
<g opacity="0.7">
<path d="M118.497 176.973C119.277 176.973 119.909 176.341 119.909 175.561C119.909 174.781 119.277 174.149 118.497 174.149C117.717 174.149 117.085 174.781 117.085 175.561C117.085 176.341 117.717 176.973 118.497 176.973Z" fill="white"/>
</g>
<path d="M99.5832 148.136C94.4921 142.373 94.934 138.386 94.934 138.386C101.591 138.165 103.81 129.549 103.81 129.549L109.573 136.916C108.567 137.738 107.62 138.631 106.74 139.587C103.003 143.727 104.818 145.437 104.818 145.437C104.069 148.808 99.5832 148.136 99.5832 148.136Z" fill="#FFC5B0"/>
<path opacity="0.2" d="M109.592 136.955C108.586 137.777 107.639 138.669 106.759 139.625C104.117 135.927 103.829 129.587 103.829 129.587L109.592 136.955Z" fill="black"/>
<path d="M115.856 109.77C123.627 111.691 125.125 116.437 123.742 124.592C122.013 134.784 118.055 141.364 108.853 136.859C96.3461 130.73 102.936 106.629 115.856 109.77Z" fill="#FFC5B0"/>
<path d="M118.814 122.94C119.156 124.252 119.653 125.52 120.293 126.715C119.987 126.98 119.613 127.156 119.213 127.222C118.813 127.288 118.402 127.242 118.026 127.09L118.814 122.94Z" fill="#A24E3F"/>
<path d="M114.213 121.144C114.069 121.787 113.608 122.229 113.176 122.104C112.743 121.979 112.513 121.413 112.657 120.769C112.801 120.125 113.262 119.684 113.685 119.808C114.107 119.933 114.396 120.5 114.213 121.144Z" fill="#263238"/>
<path d="M113.502 119.799L115.02 119.559C115.02 119.559 114.069 120.577 113.502 119.799Z" fill="#263238"/>
<path d="M122.224 122.757C122.09 123.401 121.629 123.843 121.196 123.718C120.764 123.593 120.534 123.026 120.678 122.383C120.822 121.739 121.283 121.297 121.705 121.422C122.128 121.547 122.368 122.114 122.224 122.757Z" fill="#263238"/>
<path d="M121.523 121.413L123.041 121.172C123.041 121.172 122.08 122.2 121.523 121.413Z" fill="#263238"/>
<path d="M111.782 116.437C111.728 116.437 111.674 116.424 111.625 116.399C111.577 116.374 111.535 116.338 111.504 116.293C111.449 116.218 111.426 116.126 111.438 116.034C111.451 115.943 111.499 115.86 111.571 115.803C112.161 115.431 112.829 115.201 113.523 115.133C114.216 115.064 114.916 115.159 115.567 115.409C115.647 115.446 115.71 115.512 115.743 115.593C115.776 115.675 115.777 115.766 115.745 115.848C115.713 115.93 115.651 115.997 115.572 116.035C115.492 116.073 115.401 116.079 115.317 116.053C114.776 115.851 114.196 115.773 113.62 115.826C113.045 115.88 112.489 116.062 111.994 116.36C111.933 116.406 111.859 116.433 111.782 116.437Z" fill="#263238"/>
<path d="M124.117 118.54C124.069 118.541 124.022 118.53 123.979 118.51C123.936 118.49 123.898 118.461 123.867 118.425C123.549 118.027 123.146 117.705 122.687 117.484C122.228 117.263 121.725 117.148 121.216 117.148C121.125 117.153 121.035 117.125 120.964 117.068C120.893 117.012 120.846 116.93 120.831 116.84C120.82 116.75 120.846 116.659 120.901 116.587C120.957 116.515 121.039 116.468 121.129 116.456C121.749 116.44 122.364 116.567 122.927 116.827C123.49 117.087 123.986 117.473 124.376 117.954C124.439 118.021 124.474 118.108 124.474 118.199C124.474 118.291 124.439 118.378 124.376 118.444C124.342 118.478 124.301 118.504 124.257 118.52C124.212 118.537 124.164 118.544 124.117 118.54Z" fill="#263238"/>
<path d="M104.156 120.807C104.156 120.807 109.352 115.303 110.006 110.241C110.006 110.241 126.95 107.695 123.905 123.526C123.905 123.526 128.795 110.001 115.491 106.437C102.186 102.873 97.4892 122.44 103.003 129.952C102.974 129.952 100.947 124.256 104.156 120.807Z" fill="#263238"/>
<path d="M105.03 122.767C105.174 121.853 104.953 120.919 104.413 120.168C103.874 119.416 103.06 118.907 102.148 118.752C99.6696 118.425 97.345 123.094 103.022 125.745C103.829 126.129 104.501 125.399 105.03 122.767Z" fill="#FFC5B0"/>
<path d="M128.583 127.003C126.566 125.082 126.874 121.816 128.458 118.502C130.043 115.188 125.942 112.738 125.942 112.738C125.942 112.738 125.615 108.57 122.407 106.898C121.83 106.591 119.16 106.898 119.16 106.898C115.663 103.056 110.044 99.8955 105.635 104.9C103.032 107.859 100.448 104.833 96.3269 110.981C93.3491 115.428 95.424 119.338 94.5595 120.769C90.5634 127.339 95.7602 129.116 97.0089 131.403C97.0089 131.403 99.7562 130.096 99.5257 129.309C97.6045 123.017 100.919 118.934 103.454 119.933C105.99 120.932 107.796 120.673 109.631 118.358C111.466 116.043 110.188 113.555 114.434 112.979C118.68 112.402 119.112 109.972 119.112 109.972C119.18 111.053 119.54 112.094 120.155 112.986C120.769 113.878 121.614 114.586 122.599 115.034C126.143 116.888 124.751 119.126 124.251 122.287C123.752 125.447 125.317 126.667 128.093 128.953C130.87 131.239 127.94 132.911 127.94 132.911C128.467 132.644 128.918 132.251 129.254 131.765C129.59 131.28 129.8 130.718 129.864 130.132C129.928 129.545 129.844 128.951 129.621 128.405C129.397 127.859 129.04 127.377 128.583 127.003Z" fill="#263238"/>
<path d="M117.44 130.615C116.752 131.237 116.11 131.908 115.519 132.623L115.097 132.373C113.175 131.23 112.695 130.077 112.705 129.136C112.729 128.68 112.857 128.237 113.079 127.839C113.201 127.609 113.353 127.395 113.531 127.205C114.392 128.432 115.506 129.46 116.797 130.221L117.44 130.615Z" fill="#263238"/>
<path d="M116.797 130.221L116.22 130.797C114.434 129.712 113.339 128.713 113.079 127.839C113.201 127.609 113.353 127.395 113.531 127.205C114.392 128.432 115.505 129.46 116.797 130.221Z" fill="white"/>
<path d="M115.097 132.373C113.175 131.23 112.695 130.077 112.705 129.136C113.421 129.585 114.052 130.157 114.568 130.826C114.903 131.273 115.088 131.815 115.097 132.373Z" fill="#DE5753"/>
<path d="M262.225 112.136L262.428 117.552C264.637 122.805 270.897 118.794 270.897 118.794L274.681 118.08C275.341 117.909 275.919 117.511 276.313 116.955C276.707 116.399 276.891 115.722 276.833 115.043L276.719 111.251C276.742 110.471 276.46 109.714 275.934 109.138C275.409 108.562 274.68 108.213 273.901 108.165L270.54 108.246C269.562 108.266 268.605 108.528 267.755 109.01L262.225 112.136Z" fill="#FFC5B0"/>
<path d="M267.146 140.97C267.076 140.979 267.005 140.979 266.934 140.97H266.618H265.952C265.489 140.97 265.026 140.97 264.563 140.97C263.63 140.97 262.688 140.88 261.762 140.799C259.991 140.653 258.233 140.381 256.5 139.987C255.091 139.689 253.726 139.209 252.44 138.558C252.084 138.374 251.745 138.159 251.425 137.917C251.231 137.77 251.198 137.738 251.182 137.803L251.702 139.362C251.611 139.158 251.583 138.932 251.62 138.712C251.723 138.176 251.924 137.664 252.213 137.202C253.308 135.488 254.68 133.968 256.273 132.704C258.225 131.109 260.3 129.67 262.477 128.4C263.605 127.734 264.775 127.117 265.96 126.516C266.545 126.224 267.146 125.932 267.738 125.655L268.623 125.258L269.395 124.925L263.216 109.765L261.957 110.317L260.82 110.837C260.073 111.186 259.342 111.543 258.612 111.917C257.15 112.647 255.713 113.427 254.284 114.239C251.323 115.907 248.499 117.808 245.839 119.923C242.749 122.292 240.076 125.16 237.93 128.408C236.642 130.432 235.703 132.658 235.153 134.993C234.531 137.661 234.503 140.433 235.072 143.113C235.168 143.567 235.307 144.01 235.486 144.437L235.583 144.672C236.435 146.628 237.622 148.42 239.091 149.966C240.342 151.278 241.746 152.433 243.273 153.409C244.594 154.252 245.976 154.995 247.406 155.634C248.762 156.243 250.086 156.747 251.393 157.185C253.904 158.003 256.468 158.651 259.066 159.126C260.333 159.369 261.583 159.572 262.85 159.743C263.483 159.832 264.117 159.905 264.766 159.978L265.749 160.076L266.261 160.125L266.878 160.165L267.146 140.97Z" fill="#1F7B76"/>
<g opacity="0.2">
<path d="M267.146 140.97C267.076 140.979 267.005 140.979 266.934 140.97H266.618H265.952C265.489 140.97 265.026 140.97 264.563 140.97C263.63 140.97 262.688 140.88 261.762 140.799C259.991 140.653 258.233 140.381 256.5 139.987C255.091 139.689 253.726 139.209 252.44 138.558C252.084 138.374 251.745 138.159 251.425 137.917C251.231 137.77 251.198 137.738 251.182 137.803L251.702 139.362C251.611 139.158 251.583 138.932 251.62 138.712C251.723 138.176 251.924 137.664 252.213 137.202C253.308 135.488 254.68 133.968 256.273 132.704C258.225 131.109 260.3 129.67 262.477 128.4C263.605 127.734 264.775 127.117 265.96 126.516C266.545 126.224 267.146 125.932 267.738 125.655L268.623 125.258L269.395 124.925L263.216 109.765L261.957 110.317L260.82 110.837C260.073 111.186 259.342 111.543 258.612 111.917C257.15 112.647 255.713 113.427 254.284 114.239C251.323 115.907 248.499 117.808 245.839 119.923C242.749 122.292 240.076 125.16 237.93 128.408C236.642 130.432 235.703 132.658 235.153 134.993C234.531 137.661 234.503 140.433 235.072 143.113C235.168 143.567 235.307 144.01 235.486 144.437L235.583 144.672C236.435 146.628 237.622 148.42 239.091 149.966C240.342 151.278 241.746 152.433 243.273 153.409C244.594 154.252 245.976 154.995 247.406 155.634C248.762 156.243 250.086 156.747 251.393 157.185C253.904 158.003 256.468 158.651 259.066 159.126C260.333 159.369 261.583 159.572 262.85 159.743C263.483 159.832 264.117 159.905 264.766 159.978L265.749 160.076L266.261 160.125L266.878 160.165L267.146 140.97Z" fill="black"/>
</g>
<path d="M279.943 107.524C277.478 109.536 275.718 112.28 274.916 115.359C274.916 115.359 273.439 121.449 272.627 122.123C273.497 122.878 274.626 123.268 275.777 123.211C275.777 123.211 283.459 108.319 279.943 107.524Z" fill="#7D8488"/>
<path d="M249.525 338.47L262.379 338.6L260.341 353.776L249.598 353.695L249.525 338.47Z" fill="#FFC5B0"/>
<path opacity="0.2" d="M249.533 338.478L262.387 338.6L261.242 347.102L249.566 347.004L249.533 338.478Z" fill="black"/>
<path d="M273.374 287.266C279.65 267.778 286.853 239.537 280.681 220.983L244.791 220.87C244.791 220.87 245.847 264.668 246.415 282.646C247 301.322 247.674 344.357 247.674 344.357H262.395C262.395 344.357 274.453 308.134 273.374 287.266Z" fill="#1F7B76"/>
<path opacity="0.4" d="M273.374 287.266C279.65 267.778 286.853 239.537 280.681 220.983L244.791 220.87C244.791 220.87 245.847 264.668 246.415 282.646C247 301.322 247.674 344.357 247.674 344.357H262.395C262.395 344.357 274.453 308.134 273.374 287.266Z" fill="white"/>
<path opacity="0.1" d="M250.963 341.58C250.963 341.182 251.547 301.127 250.963 282.638C250.41 264.863 250.427 241.429 250.427 241.226H249.672C249.672 241.462 249.671 264.912 250.216 282.695C250.792 301.167 250.216 341.199 250.216 341.605L250.963 341.58Z" fill="black"/>
<path opacity="0.4" d="M276.662 247.227C274.08 253.633 273.163 264.75 275.907 279.024C279.098 268.087 282.038 255.517 282.817 243.743C282.176 243.8 277.361 247.154 276.662 247.227Z" fill="#1F7B76"/>
<path d="M261.916 358.478H258.522L257.816 357.341L256.297 358.494H239.302C239.226 357.268 239.508 356.046 240.114 354.978C240.114 354.978 245.425 353.776 247.642 351.803C247.857 351.639 248.108 351.526 248.374 351.474C248.64 351.422 248.915 351.432 249.176 351.503C251.425 351.941 257.402 352.924 260.82 351.641C260.899 351.615 260.983 351.608 261.065 351.621C261.147 351.634 261.225 351.667 261.291 351.716C261.358 351.766 261.412 351.83 261.449 351.905C261.486 351.979 261.504 352.061 261.502 352.144C261.47 354.263 261.608 356.381 261.916 358.478Z" fill="#263238"/>
<path d="M297.644 338.47L310.522 338.6L311.082 353.776L300.332 353.695L297.644 338.47Z" fill="#FFC5B0"/>
<path opacity="0.2" d="M297.652 338.478L310.53 338.6L310.839 347.102L299.154 347.004L297.652 338.478Z" fill="black"/>
<path d="M311.651 279.365C312.69 259.878 314.087 230.727 307.591 221.771L267.495 220.87C267.495 220.87 279.772 263.905 283.938 281.899C288.265 300.575 297.741 344.422 297.741 344.422H311.659C311.659 344.422 316.88 301.598 311.651 279.365Z" fill="#1F7B76"/>
<path opacity="0.4" d="M311.651 279.365C312.69 259.878 314.087 230.727 307.591 221.771L267.495 220.87C267.495 220.87 279.772 263.905 283.938 281.899C288.265 300.575 297.741 344.422 297.741 344.422H311.659C311.659 344.422 316.88 301.598 311.651 279.365Z" fill="white"/>
<path opacity="0.1" d="M302.402 343.561L303.141 343.399C303.06 343.009 294.518 304.423 290.653 285.853C286.934 267.989 281.315 241.38 281.258 241.121L280.519 241.275C280.576 241.543 286.203 268.144 289.914 286.008C293.779 304.578 302.321 343.172 302.402 343.561Z" fill="black"/>
<path d="M267.958 141.294C279.865 140.163 291.861 140.354 303.726 141.863C305.35 142.103 306.908 142.672 308.304 143.535C309.7 144.399 310.905 145.538 311.846 146.884C312.786 148.229 313.442 149.753 313.773 151.361C314.104 152.969 314.103 154.627 313.77 156.235C308.208 184.249 309.605 216.558 309.028 222.096C312.804 220.813 251.425 232.92 244.069 222.559C240.415 188.252 252.757 159.978 258.368 148.115C259.249 146.252 260.593 144.647 262.272 143.453C263.951 142.258 265.909 141.515 267.958 141.294Z" fill="#1F7B76"/>
<path opacity="0.7" d="M267.958 141.294C279.865 140.163 291.861 140.354 303.726 141.863C305.35 142.103 306.908 142.672 308.304 143.535C309.7 144.399 310.905 145.538 311.846 146.884C312.786 148.229 313.442 149.753 313.773 151.361C314.104 152.969 314.103 154.627 313.77 156.235C308.208 184.249 309.605 216.558 309.028 222.096C312.804 220.813 251.425 232.92 244.069 222.559C240.415 188.252 252.757 159.978 258.368 148.115C259.249 146.252 260.593 144.647 262.272 143.453C263.951 142.258 265.909 141.515 267.958 141.294Z" fill="white"/>
<path d="M273.642 142.415C274.619 141.308 275.862 140.47 277.255 139.979C277.838 138.47 277.881 136.806 277.377 135.269L295.005 129.659C293.576 135.489 292.366 139.321 294.526 142.147C293.219 143.917 285.269 146.41 278.132 146.783C272.074 147.068 272.342 144.015 273.642 142.415Z" fill="#FFC5B0"/>
<path d="M293.503 140.003C293.072 141.424 284.084 146.012 276.086 146.718C277.179 147.321 278.104 148.187 278.777 149.238C279.451 150.288 279.851 151.491 279.943 152.735C279.943 152.735 291.505 150.681 296.377 141.075C295.5 139.817 293.503 140.003 293.503 140.003Z" fill="white"/>
<path d="M277.222 139.946C276.37 140.807 271.132 144.583 276.086 146.718C273.796 147.735 271.878 149.437 270.597 151.59C270.597 151.59 266.431 145.094 274.559 140.523C275.43 140.26 276.321 140.067 277.222 139.946Z" fill="white"/>
<path opacity="0.2" d="M277.482 135.805L290.693 134.993C286.56 139.411 280.292 141.075 277.434 139.281C277.741 138.145 277.757 136.95 277.482 135.805Z" fill="black"/>
<path d="M298.399 120.645C296.345 128.847 294.77 134.368 289.305 136.966C278.449 142.147 273.552 136.552 273.122 127.888C272.732 120.085 276.159 107.995 284.888 106.281C286.821 105.901 288.819 106.019 290.695 106.622C292.571 107.224 294.263 108.294 295.613 109.729C296.964 111.164 297.927 112.919 298.414 114.828C298.902 116.737 298.896 118.739 298.399 120.645Z" fill="#FFC5B0"/>
<path d="M296.605 127.166C296.605 127.166 292.87 127.344 291.148 126.143C292.407 123.569 292.91 120.735 293.917 120.093C292.293 118.956 291.319 112.639 294.023 110.447C286.089 108.823 281.502 111.778 279.358 108.206C277.62 105.291 279.504 99.6392 287.827 101.336C296.15 103.033 302.76 107.11 301.631 111.551C304.416 112.201 304.221 120.775 296.605 127.166Z" fill="#7D8488"/>
<path opacity="0.2" d="M287.218 120.223C288.212 119.963 289.268 120.106 290.157 120.621C289.161 120.682 288.162 120.547 287.218 120.223Z" fill="black"/>
<path opacity="0.2" d="M274.526 130.998C274.812 130.819 275.13 130.697 275.463 130.641C275.796 130.585 276.136 130.595 276.465 130.67C276.794 130.746 277.105 130.885 277.379 131.081C277.654 131.276 277.888 131.524 278.067 131.81C276.827 131.996 275.562 131.706 274.526 130.998Z" fill="black"/>
<path opacity="0.2" d="M287.169 120.93C287.634 120.912 288.097 120.994 288.527 121.171C288.957 121.347 289.344 121.614 289.662 121.953C288.767 121.795 287.917 121.446 287.169 120.93Z" fill="black"/>
<path opacity="0.2" d="M275.777 118.209C275.777 118.209 275.16 117.333 274.608 117.73C274.92 118.036 275.34 118.208 275.777 118.209Z" fill="black"/>
<path opacity="0.2" d="M275.59 118.851C275.59 118.851 275.095 118.039 274.673 118.729C274.795 118.841 274.948 118.912 275.112 118.934C275.276 118.955 275.443 118.927 275.59 118.851Z" fill="black"/>
<path opacity="0.2" d="M279.991 110.634C282.475 110.337 284.991 110.433 287.445 110.918C284.957 110.963 282.469 110.868 279.991 110.634Z" fill="black"/>
<path opacity="0.2" d="M278.919 111.779C278.919 111.779 284.603 112.063 287.34 113.605C284.483 113.255 281.664 112.644 278.919 111.779Z" fill="black"/>
<path d="M300.916 128.611C300.316 129.473 299.551 130.208 298.667 130.773C297.782 131.339 296.794 131.724 295.76 131.908C292.983 132.371 291.871 129.813 292.869 127.344C293.763 125.128 296.296 122.204 298.967 122.862C301.639 123.52 302.378 126.459 300.916 128.611Z" fill="#FFC5B0"/>
<path d="M284.936 120.248C284.806 120.93 284.352 121.401 283.905 121.319C283.458 121.238 283.215 120.613 283.337 119.939C283.458 119.265 283.921 118.786 284.368 118.867C284.814 118.948 285.058 119.565 284.936 120.248Z" fill="#263238"/>
<path d="M277.758 119.005C277.637 119.687 277.174 120.158 276.735 120.077C276.297 119.996 276.037 119.371 276.159 118.697C276.28 118.023 276.743 117.544 277.19 117.633C277.637 117.722 277.888 118.331 277.758 119.005Z" fill="#263238"/>
<path d="M277.498 125C273.35 125.148 273.062 126.324 273.023 127.568C275.126 129.132 280.551 129.815 282.714 130C284.306 127.537 279.228 125.542 279.228 125.542L277.498 125Z" fill="#7D8488"/>
<path d="M279.943 120.378L279.228 124.113C279.165 124.443 278.977 124.736 278.703 124.931C278.429 125.126 278.091 125.208 277.758 125.16C276.982 125.067 276.248 124.757 275.639 124.267C276.89 121.888 279.943 120.378 279.943 120.378Z" fill="#A24E3F"/>
<path d="M283.093 117.17C283.033 117.202 282.98 117.246 282.939 117.3C282.906 117.342 282.883 117.39 282.87 117.442C282.857 117.493 282.854 117.547 282.863 117.599C282.871 117.652 282.89 117.702 282.918 117.747C282.947 117.792 282.984 117.83 283.028 117.86C283.537 118.254 284.133 118.52 284.767 118.634C285.4 118.749 286.051 118.709 286.666 118.518C286.716 118.501 286.761 118.474 286.8 118.439C286.839 118.403 286.871 118.36 286.893 118.313C286.915 118.265 286.927 118.213 286.928 118.16C286.93 118.108 286.921 118.055 286.901 118.007C286.863 117.907 286.787 117.825 286.691 117.78C286.594 117.735 286.483 117.729 286.382 117.763C285.892 117.904 285.375 117.927 284.874 117.831C284.374 117.735 283.903 117.523 283.499 117.211C283.44 117.171 283.372 117.146 283.301 117.139C283.23 117.132 283.159 117.143 283.093 117.17Z" fill="#263238"/>
<path d="M278.627 116.318C278.575 116.276 278.514 116.248 278.449 116.236C278.384 116.223 278.317 116.226 278.254 116.244C277.774 116.405 277.262 116.448 276.762 116.371C276.262 116.293 275.788 116.097 275.379 115.798C275.339 115.763 275.292 115.737 275.242 115.72C275.191 115.704 275.138 115.698 275.085 115.702C275.032 115.707 274.98 115.722 274.933 115.747C274.886 115.771 274.845 115.805 274.811 115.847C274.743 115.929 274.709 116.034 274.719 116.141C274.728 116.247 274.778 116.346 274.86 116.415C275.371 116.798 275.967 117.052 276.597 117.157C277.227 117.262 277.873 117.213 278.481 117.016C278.549 116.993 278.61 116.952 278.658 116.898C278.706 116.844 278.739 116.779 278.754 116.708C278.768 116.638 278.764 116.565 278.742 116.496C278.72 116.428 278.68 116.366 278.627 116.318Z" fill="#263238"/>
<path d="M312.909 358.478H310.108L309.353 357.341L307.883 358.494H290.994C290.848 357.292 291.045 356.073 291.562 354.978C291.562 354.978 296.142 353.776 298.708 351.649C298.785 351.56 298.881 351.491 298.99 351.448C299.099 351.404 299.216 351.387 299.333 351.397C301.014 351.746 307.697 353.021 311.375 351.69C311.465 351.656 311.562 351.644 311.657 351.655C311.753 351.667 311.844 351.701 311.924 351.755C312.003 351.809 312.069 351.882 312.115 351.966C312.16 352.051 312.185 352.146 312.187 352.242C312.268 354.336 312.51 356.421 312.909 358.478Z" fill="#263238"/>
<path d="M309.913 219.611C309.886 219.478 309.808 219.362 309.695 219.286C309.583 219.21 309.446 219.181 309.312 219.205C301.72 220.35 281.323 223.208 266.472 223.208C258.944 223.179 251.43 222.568 243.996 221.381C243.885 221.363 243.771 221.371 243.665 221.406C243.558 221.44 243.461 221.499 243.381 221.579C243.302 221.658 243.243 221.755 243.208 221.862C243.174 221.969 243.165 222.082 243.184 222.193C243.395 223.671 243.63 225.059 243.817 226.115C243.846 226.293 243.931 226.458 244.059 226.585C244.188 226.712 244.353 226.795 244.532 226.821C251.791 227.893 259.117 228.455 266.455 228.502C281.591 228.502 301.647 225.717 309.67 224.507C309.787 224.487 309.894 224.428 309.974 224.34C310.053 224.252 310.101 224.139 310.108 224.02C310.215 222.548 310.15 221.068 309.913 219.611Z" fill="#263238"/>
<path d="M296.377 139.946C290.417 146.824 284.896 174.18 283.012 192.994C281.128 211.808 284.636 234.641 284.636 234.641C293.446 236.021 304.765 231.742 312.982 228.721C312.982 228.721 310.157 202.973 314.03 168.837C315.719 153.913 317.278 145.289 312.65 143.341C309.158 141.879 299.625 139.378 296.377 139.946Z" fill="#1F7B76"/>
<path opacity="0.2" d="M296.377 139.946C290.417 146.824 284.896 174.18 283.012 192.994C281.128 211.808 284.636 234.641 284.636 234.641C293.446 236.021 304.765 231.742 312.982 228.721C312.982 228.721 310.157 202.973 314.03 168.837C315.719 153.913 317.278 145.289 312.65 143.341C309.158 141.879 299.625 139.378 296.377 139.946Z" fill="black"/>
<path d="M274.08 140.815C266.025 151.144 254.178 183.153 257.191 233.001C250.93 233.756 241.113 229.85 241.113 229.85C241.113 229.85 241.495 189.6 245.766 173.872C250.037 158.143 256.882 146.264 260.658 143.341C264.434 140.417 269.216 139.865 274.08 140.815Z" fill="#1F7B76"/>
<path opacity="0.2" d="M274.08 140.815C266.025 151.144 254.178 183.153 257.191 233.001C250.93 233.756 241.113 229.85 241.113 229.85C241.113 229.85 241.495 189.6 245.766 173.872C250.037 158.143 256.882 146.264 260.658 143.341C264.434 140.417 269.216 139.865 274.08 140.815Z" fill="black"/>
<path d="M304.051 171.005L306.194 171.119L306.503 168.967L304.351 168.862L304.051 171.005Z" fill="#1F7B76"/>
<path d="M294.948 170.526L296.223 170.591L296.532 168.447L295.257 168.382L294.948 170.526Z" fill="#1F7B76"/>
<path d="M313.851 209.624L316.799 214.171C318.001 219.741 310.579 220.05 310.579 220.05L307.071 221.673C306.434 221.916 305.732 221.924 305.089 221.697C304.447 221.469 303.906 221.021 303.563 220.431L301.477 217.264C301.01 216.64 300.804 215.858 300.904 215.085C301.004 214.312 301.402 213.608 302.013 213.123L304.806 211.248C305.619 210.704 306.553 210.369 307.526 210.273L313.851 209.624Z" fill="#FFC5B0"/>
<path d="M298.878 156.365C299.836 157.567 300.9 158.939 301.891 160.254C302.881 161.57 303.896 162.926 304.871 164.274C306.828 166.97 308.695 169.722 310.465 172.467C312.204 175.125 313.805 177.871 315.264 180.692C315.938 182.032 316.555 183.364 317.002 184.541C317.221 185.126 317.408 185.678 317.522 186.1C317.635 186.522 317.668 186.831 317.684 186.733L317.846 185.109C317.482 187.206 316.938 189.268 316.222 191.272C315.477 193.428 314.624 195.545 313.665 197.614C312.666 199.717 311.57 201.812 310.417 203.866C309.832 204.898 309.207 205.905 308.582 206.903L307.623 208.381L307.144 209.096L306.706 209.713L320.014 219.254L320.672 218.287L321.257 217.402L322.394 215.657C323.13 214.487 323.847 213.31 324.545 212.124C325.958 209.753 327.29 207.326 328.532 204.817C331.242 199.624 333.296 194.114 334.647 188.414C334.749 187.958 334.803 187.493 334.809 187.026V186.782C334.804 185.264 334.638 183.751 334.314 182.267C334.058 181.114 333.741 179.976 333.364 178.857C332.709 176.908 331.948 174.997 331.082 173.133C329.458 169.6 327.696 166.344 325.885 163.161C324.074 159.978 322.182 156.925 320.258 153.888C319.3 152.367 318.328 150.86 317.343 149.366C316.336 147.847 315.378 146.41 314.274 144.835L298.878 156.365Z" fill="#1F7B76"/>
<g opacity="0.2">
<path d="M298.878 156.365C299.836 157.567 300.9 158.939 301.891 160.254C302.881 161.57 303.896 162.926 304.871 164.274C306.828 166.97 308.695 169.722 310.465 172.467C312.204 175.125 313.805 177.871 315.264 180.692C315.938 182.032 316.555 183.364 317.002 184.541C317.221 185.126 317.408 185.678 317.522 186.1C317.635 186.522 317.668 186.831 317.684 186.733L317.846 185.109C317.482 187.206 316.938 189.268 316.222 191.272C315.477 193.428 314.624 195.545 313.665 197.614C312.666 199.717 311.57 201.812 310.417 203.866C309.832 204.898 309.207 205.905 308.582 206.903L307.623 208.381L307.144 209.096L306.706 209.713L320.014 219.254L320.672 218.287L321.257 217.402L322.394 215.657C323.13 214.487 323.847 213.31 324.545 212.124C325.958 209.753 327.29 207.326 328.532 204.817C331.242 199.624 333.296 194.114 334.647 188.414C334.749 187.958 334.803 187.493 334.809 187.026V186.782C334.804 185.264 334.638 183.751 334.314 182.267C334.058 181.114 333.741 179.976 333.364 178.857C332.709 176.908 331.948 174.997 331.082 173.133C329.458 169.6 327.696 166.344 325.885 163.161C324.074 159.978 322.182 156.925 320.258 153.888C319.3 152.367 318.328 150.86 317.343 149.366C316.336 147.847 315.378 146.41 314.274 144.835L298.878 156.365Z" fill="black"/>
</g>
<path d="M223.254 346.046C223.254 346.046 222.586 350.346 222.586 351.102L219.537 353.709L211.814 351.984L211.145 345.665L223.254 346.046Z" fill="#FFC5B0"/>
<path d="M211.673 351.041V351.71C211.673 351.71 199.991 356.243 199.844 358.443L222.933 358.604L222.673 350.921C220.955 351.729 219.084 352.157 217.186 352.178C215.288 352.199 213.408 351.811 211.673 351.041Z" fill="#263238"/>
<g opacity="0.6">
<path d="M222.92 358.617L222.853 356.772L200.747 357.293C200.747 357.293 199.717 357.735 199.831 358.457L222.92 358.617Z" fill="white"/>
</g>
<path d="M211.6 351.804C211.6 351.917 212.168 351.971 212.723 352.339C213.278 352.706 213.565 353.181 213.666 353.134C213.766 353.087 213.612 352.466 212.93 352.004C212.248 351.543 211.559 351.683 211.6 351.804Z" fill="#263238"/>
<path d="M209.152 352.773C209.152 352.88 209.614 353.081 209.995 353.555C210.376 354.03 210.483 354.545 210.59 354.538C210.697 354.532 210.777 353.87 210.296 353.308C209.814 352.746 209.159 352.666 209.152 352.773Z" fill="#263238"/>
<path d="M207.755 355.662C207.862 355.662 208.022 355.127 207.755 354.505C207.487 353.883 206.946 353.636 206.899 353.729C206.852 353.823 207.173 354.157 207.4 354.666C207.628 355.174 207.648 355.648 207.755 355.662Z" fill="#263238"/>
<path d="M198.106 346.046C198.106 346.046 197.437 350.346 197.437 351.102L194.388 353.709L186.658 351.984L186.023 345.665L198.106 346.046Z" fill="#FFC5B0"/>
<path d="M186.531 351.041V351.71C186.531 351.71 174.823 356.257 174.683 358.49L197.772 358.651L197.511 350.968C195.793 351.766 193.924 352.186 192.029 352.198C190.135 352.211 188.26 351.816 186.531 351.041Z" fill="#263238"/>
<g opacity="0.6">
<path d="M197.772 358.617L197.712 356.772L175.605 357.293C175.605 357.293 174.576 357.735 174.683 358.457L197.772 358.617Z" fill="white"/>
</g>
<path d="M186.438 351.804C186.438 351.917 187.006 351.971 187.554 352.339C188.103 352.706 188.404 353.181 188.504 353.134C188.604 353.087 188.444 352.466 187.768 352.004C187.093 351.543 186.411 351.683 186.438 351.804Z" fill="#263238"/>
<path d="M184.01 352.773C184.01 352.88 184.472 353.081 184.846 353.555C185.221 354.03 185.334 354.545 185.448 354.538C185.562 354.532 185.635 353.87 185.154 353.308C184.672 352.746 184.01 352.666 184.01 352.773Z" fill="#263238"/>
<path d="M182.613 355.662C182.713 355.662 182.874 355.127 182.613 354.505C182.352 353.883 181.804 353.636 181.75 353.729C181.697 353.823 182.031 354.157 182.252 354.666C182.472 355.174 182.499 355.648 182.613 355.662Z" fill="#263238"/>
<path d="M178.688 238.231H229.44L234.689 262.263L224.204 347.711H207.969L204.258 272.446L200.346 347.711H182.947L175.639 263.212L178.688 238.231Z" fill="#263238"/>
<path d="M217.49 346.514C217.577 346.514 217.798 331.456 217.979 312.881C218.159 294.305 218.246 279.247 218.159 279.247C218.072 279.247 217.852 294.298 217.664 312.881C217.477 331.463 217.404 346.514 217.49 346.514Z" fill="#455A64"/>
<path d="M191.493 346.227C191.503 346.165 191.503 346.102 191.493 346.04C191.493 345.899 191.493 345.719 191.446 345.491C191.386 344.983 191.312 344.274 191.212 343.378C191.005 341.546 190.724 338.892 190.41 335.608C190.095 332.325 189.741 328.407 189.487 324.054C189.233 319.701 188.972 314.92 188.818 309.885C188.664 304.85 188.658 300.062 188.684 295.696C188.711 291.329 188.832 287.411 188.972 284.115C189.112 280.818 189.226 278.15 189.34 276.311C189.387 275.409 189.42 274.7 189.447 274.192C189.447 273.964 189.447 273.777 189.447 273.637C189.451 273.574 189.451 273.512 189.447 273.449C189.425 273.509 189.414 273.573 189.413 273.637C189.413 273.777 189.413 273.958 189.367 274.185C189.326 274.693 189.266 275.402 189.193 276.305C189.046 278.143 188.885 280.811 188.725 284.108C188.564 287.404 188.444 291.329 188.377 295.696C188.31 300.062 188.377 304.857 188.484 309.898C188.591 314.94 188.878 319.721 189.153 324.074C189.427 328.427 189.821 332.345 190.149 335.629C190.477 338.912 190.818 341.56 191.052 343.392C191.172 344.288 191.272 344.997 191.339 345.498L191.419 346.046C191.435 346.11 191.46 346.171 191.493 346.227Z" fill="#455A64"/>
<path d="M206.15 161.127L225.541 162.177L227.126 169.479C227.126 169.479 221.777 173.771 221.242 173.952C220.707 174.133 208.537 175.831 208.537 175.831C208.537 175.831 195.418 169.719 195.598 169.773C195.779 169.826 206.15 161.127 206.15 161.127Z" fill="#FFC5B0"/>
<path d="M201.643 161.06C200.881 161.06 192.703 159.97 187.708 163.26C182.713 166.55 169.3 192.013 169.3 192.013C169.3 192.013 165.207 205.567 170.965 208.248C176.722 210.929 191.927 219.114 191.927 219.114L195.632 205.694L185.147 200.839V187.9L201.643 161.06Z" fill="#1F7B76"/>
<path d="M224.204 169.927C224.204 169.927 216.849 174.193 211.218 172.949C207.645 172.06 204.353 170.287 201.643 167.794L191.74 190.475L197.611 235.944L215.311 238.258L221.175 195.155L224.204 169.927Z" fill="white"/>
<path d="M224.752 161.903L228.597 163.24L235.671 209.639C235.671 209.639 241.181 228.956 240.68 237.301C240.178 245.646 235.698 271.504 235.698 271.504L203.261 268.08L204.599 217.328C204.599 217.328 202.265 202.725 209.192 193.878C216.12 185.032 224.752 161.903 224.752 161.903Z" fill="#1F7B76"/>
<path d="M206.15 160.893C205.702 161.528 198.607 188.482 199.37 194.152C200.132 199.823 204.244 211.725 204.244 211.725V267.893L175.625 265.278C175.625 265.278 173.278 244.764 175.625 234.941C177.972 225.118 181.383 213.477 181.383 213.477L183.643 179.181L198.046 160.866L206.15 160.893Z" fill="#1F7B76"/>
<path d="M212.81 209.632C212.656 209.579 207.715 206.877 206.471 206.717C205.227 206.556 195.518 206.088 195.518 206.088L192.924 215.449C192.924 215.449 201.008 219.368 202.285 219.682C203.562 219.996 208.831 221.915 209.714 221.915C210.596 221.915 213.097 221.086 213.097 220.511C213.108 220.36 213.079 220.209 213.015 220.072C212.95 219.935 212.852 219.817 212.73 219.729C211.6 219.769 210.469 219.7 209.353 219.522C208.769 219.314 208.197 219.073 207.641 218.799C207.641 218.799 216.528 220.137 217.149 219.943C217.771 219.749 218.239 218.425 218.239 218.425C218.239 218.425 219.282 217.703 219.383 217.027C219.483 216.352 219.122 216.044 218.554 215.784C217.985 215.523 214.134 213.778 212.99 213.497C211.847 213.216 208.831 212.661 208.831 212.661C208.831 212.661 217.979 213.651 218.554 213.39C219.129 213.129 219.75 212.146 218.814 211.571C217.676 210.845 216.43 210.301 215.123 209.96C214.053 209.839 212.81 209.632 212.81 209.632Z" fill="#FFC5B0"/>
<path d="M206.304 215.222C206.851 215.502 207.424 215.726 208.016 215.891C209.099 216.272 210.603 216.747 212.302 217.175C214 217.602 215.545 217.897 216.675 218.071C217.282 218.195 217.9 218.262 218.52 218.271C217.93 218.086 217.326 217.945 216.715 217.85C215.598 217.623 214.04 217.288 212.375 216.867C210.71 216.446 209.179 216.004 208.089 215.677C207.504 215.487 206.908 215.335 206.304 215.222Z" fill="#F6957F"/>
<path d="M207.16 208.228C208.046 208.589 208.97 208.851 209.914 209.01C210.838 209.268 211.786 209.425 212.743 209.478C211.857 209.116 210.933 208.854 209.988 208.696C209.065 208.437 208.117 208.28 207.16 208.228Z" fill="#F6957F"/>
<path d="M195.324 209.846C195.324 209.846 195.465 209.846 195.692 209.893C196.018 209.969 196.331 210.093 196.621 210.261C197.07 210.549 197.586 210.715 198.119 210.742C198.734 210.702 199.343 210.367 199.818 210.775C200.061 211.001 200.328 211.201 200.613 211.37C200.92 211.499 201.258 211.532 201.583 211.464C202.178 211.35 202.639 211.116 203.047 211.09C203.207 211.071 203.368 211.084 203.522 211.129C203.676 211.174 203.819 211.249 203.943 211.35C204.11 211.498 204.151 211.638 204.177 211.625C204.204 211.611 204.177 211.471 204.03 211.264C203.904 211.128 203.749 211.022 203.576 210.954C203.404 210.886 203.219 210.857 203.034 210.869C202.529 210.94 202.028 211.043 201.536 211.177C201.269 211.228 200.992 211.2 200.74 211.096C200.48 210.924 200.234 210.732 200.005 210.521C199.855 210.41 199.685 210.331 199.503 210.287C199.329 210.257 199.15 210.257 198.975 210.287C198.647 210.341 198.367 210.434 198.099 210.454C197.613 210.44 197.138 210.307 196.715 210.067C196.401 209.905 196.058 209.807 195.705 209.779C195.451 209.766 195.318 209.826 195.324 209.846Z" fill="#F6957F"/>
<path d="M195.231 211.765C195.486 212.101 195.85 212.337 196.26 212.434C196.689 212.583 197.147 212.631 197.598 212.574C197.842 212.523 198.091 212.501 198.34 212.507C198.458 212.531 198.568 212.58 198.665 212.652C198.761 212.723 198.839 212.816 198.895 212.922C199.064 213.189 199.322 213.388 199.624 213.484C199.901 213.543 200.189 213.543 200.466 213.484C200.886 213.375 201.317 213.31 201.75 213.29C202.03 213.3 202.296 213.412 202.499 213.604C202.633 213.744 202.666 213.865 202.686 213.858C202.706 213.851 202.686 213.718 202.593 213.524C202.494 213.396 202.37 213.29 202.228 213.212C202.087 213.134 201.931 213.085 201.77 213.069C201.321 213.055 200.872 213.098 200.433 213.196C200.195 213.257 199.944 213.242 199.715 213.154C199.486 213.065 199.29 212.907 199.156 212.701C199.068 212.573 198.962 212.459 198.841 212.36C198.708 212.257 198.548 212.192 198.38 212.173C198.105 212.165 197.831 212.194 197.564 212.26C197.145 212.328 196.717 212.305 196.307 212.193C195.937 212.082 195.576 211.939 195.231 211.765Z" fill="#F6957F"/>
<path d="M222.378 215.804C222.6 215.833 222.825 215.833 223.047 215.804C223.308 215.811 223.57 215.8 223.829 215.77C224.137 215.77 224.498 215.724 224.866 215.657C225.77 215.522 226.663 215.325 227.541 215.068C228.599 214.743 229.635 214.35 230.643 213.891C232.468 213.051 234.222 212.063 235.885 210.936C236.554 210.501 237.036 210.14 237.377 209.879C237.565 209.758 237.738 209.614 237.891 209.451C237.682 209.535 237.485 209.646 237.303 209.779L235.765 210.749C234.078 211.811 232.325 212.765 230.516 213.604C229.518 214.056 228.496 214.451 227.454 214.787C226.6 215.061 225.732 215.284 224.853 215.456C223.328 215.73 222.372 215.744 222.378 215.804Z" fill="#263238"/>
<path d="M216.126 223.848C216.47 223.806 216.81 223.736 217.143 223.641C217.538 223.555 217.929 223.448 218.313 223.32C218.761 223.186 219.283 223.032 219.838 222.818C221.147 222.336 222.427 221.775 223.669 221.14C225.182 220.345 226.651 219.467 228.069 218.512C230.621 216.748 233.023 214.775 235.25 212.614C236.106 211.785 236.782 211.096 237.256 210.608C237.497 210.365 237.72 210.106 237.925 209.833C237.651 210.032 237.396 210.256 237.163 210.501C236.688 210.963 235.992 211.625 235.117 212.427C232.858 214.534 230.449 216.474 227.908 218.231C226.504 219.182 225.051 220.059 223.555 220.859C222.331 221.508 221.07 222.084 219.777 222.584C219.236 222.818 218.721 222.979 218.28 223.132C217.838 223.286 217.45 223.413 217.129 223.507C216.787 223.594 216.451 223.708 216.126 223.848Z" fill="#263238"/>
<path d="M182.325 199.435C182.929 199.805 183.561 200.125 184.218 200.391C185.401 200.939 187.053 201.675 188.898 202.457C190.744 203.24 192.409 203.922 193.632 204.39C194.241 204.617 194.742 204.798 195.09 204.911C195.265 204.986 195.45 205.036 195.638 205.058C195.017 204.723 194.374 204.431 193.713 204.182L189.032 202.176L184.351 200.17C183.694 199.878 183.017 199.632 182.325 199.435Z" fill="#263238"/>
<path d="M194.482 174.026C194.402 174.088 194.33 174.16 194.268 174.24L193.699 174.908C193.204 175.463 192.469 176.246 191.526 177.188C190.583 178.131 189.426 179.194 188.183 180.532C186.825 181.899 185.629 183.418 184.619 185.059C183.633 186.728 182.986 188.575 182.713 190.495C182.479 192.253 182.412 193.838 182.352 195.176C182.292 196.513 182.278 197.589 182.272 198.338V199.194C182.256 199.294 182.256 199.395 182.272 199.495C182.293 199.398 182.304 199.3 182.305 199.201C182.305 198.967 182.305 198.686 182.359 198.338C182.406 197.549 182.466 196.479 182.539 195.189C182.613 193.898 182.72 192.274 182.967 190.508C183.249 188.632 183.889 186.827 184.853 185.192C185.853 183.573 187.028 182.069 188.357 180.706C189.567 179.428 190.71 178.318 191.626 177.362C192.542 176.406 193.271 175.59 193.739 175.009L194.268 174.34C194.435 174.119 194.495 174.032 194.482 174.026Z" fill="#263238"/>
<path d="M171.54 208.495C171.826 208.699 172.128 208.88 172.443 209.037L174.963 210.374C177.096 211.511 180.052 213.049 183.322 214.767C186.592 216.486 189.721 218.071 191.874 219.16L192.001 219.221L192.034 219.094C192.309 218.004 192.543 217.088 192.703 216.419C192.797 216.099 192.867 215.773 192.91 215.443C192.778 215.748 192.67 216.063 192.589 216.386C192.389 217.054 192.128 217.943 191.807 219.02L191.961 218.953C189.835 217.81 186.812 216.218 183.455 214.473C180.099 212.728 177.21 211.25 175.05 210.16L172.489 208.883C172.184 208.728 171.866 208.598 171.54 208.495Z" fill="#263238"/>
<path d="M203.455 220.15C203.443 220.313 203.443 220.476 203.455 220.638C203.455 220.986 203.522 221.447 203.562 222.029C203.683 223.239 203.763 224.991 203.876 227.158C204.064 231.491 204.124 237.489 204.017 244.108C203.91 250.728 203.709 256.726 203.535 261.059C203.449 263.205 203.382 264.951 203.328 266.194C203.328 266.783 203.288 267.244 203.281 267.592C203.264 267.754 203.264 267.918 203.281 268.08C203.32 267.922 203.34 267.761 203.342 267.599C203.342 267.251 203.408 266.789 203.449 266.201C203.535 264.991 203.649 263.239 203.756 261.072C203.99 256.733 204.238 250.742 204.338 244.115C204.438 237.489 204.338 231.484 204.097 227.144C203.957 224.978 203.843 223.226 203.689 222.016C203.616 221.441 203.562 220.973 203.522 220.632C203.518 220.469 203.495 220.308 203.455 220.15Z" fill="#263238"/>
<path d="M228.597 163.24C228.597 163.24 239.296 167.807 242.639 175.049C245.982 182.29 252.709 205.259 252.863 209.512C253.017 213.764 245.153 226.977 245.153 226.977L232.723 219.107L235.083 213.29L231.305 188.268L228.597 163.24Z" fill="#1F7B76"/>
<path d="M233.706 357.514C234.106 357.514 234.491 357.355 234.774 357.071C235.058 356.788 235.217 356.404 235.217 356.003C235.217 354.779 235.023 233.844 235.076 231.892C235.197 227.719 237.751 225.814 237.845 225.734C238.167 225.496 238.382 225.141 238.445 224.746C238.507 224.35 238.412 223.946 238.179 223.621C238.065 223.459 237.921 223.323 237.754 223.218C237.587 223.113 237.401 223.041 237.206 223.009C237.012 222.976 236.813 222.981 236.62 223.026C236.428 223.07 236.247 223.152 236.086 223.266C235.926 223.38 232.208 226.068 232.074 231.805C232.014 233.811 232.201 351.015 232.208 356.003C232.208 356.401 232.365 356.784 232.646 357.067C232.926 357.35 233.307 357.511 233.706 357.514Z" fill="#263238"/>
<path d="M242.298 240.879C242.699 240.879 243.083 240.72 243.366 240.436C243.65 240.153 243.809 239.768 243.809 239.368C243.809 234.874 243.809 228.04 243.809 227.639C243.823 227.442 243.797 227.245 243.734 227.058C243.67 226.871 243.57 226.698 243.44 226.55C243.309 226.402 243.15 226.281 242.973 226.195C242.795 226.109 242.602 226.059 242.405 226.048C242.002 226.026 241.606 226.162 241.302 226.429C240.998 226.695 240.811 227.069 240.78 227.472C240.78 227.546 240.78 227.76 240.78 239.368C240.78 239.567 240.819 239.764 240.896 239.947C240.972 240.131 241.084 240.298 241.225 240.439C241.366 240.579 241.533 240.69 241.718 240.766C241.902 240.841 242.099 240.88 242.298 240.879Z" fill="#263238"/>
<path d="M239.964 219.408L242.893 221.969C243.629 222.638 244.545 228.294 244.545 228.294C244.545 228.294 241.335 231.731 239.964 231.872C239.072 231.918 238.194 231.64 237.49 231.089C237.49 231.089 236.113 231.872 235.29 231.183C234.468 230.494 236.434 226.048 236.434 226.048C236.434 226.048 237.176 223.895 235.097 224.042L234.201 225.653L231.954 229.491C231.954 229.491 230.617 229.311 230.356 228.622C230.095 227.933 230.951 225.653 230.951 225.653C230.693 225.256 230.523 224.808 230.452 224.34C230.38 223.872 230.409 223.395 230.536 222.938C231.038 221.601 231.874 219.181 234.294 218.632C236.715 218.084 239.964 219.408 239.964 219.408Z" fill="#FFC5B0"/>
<path d="M237.624 230.501C238.007 230.133 238.371 229.744 238.714 229.338C239.604 228.421 240.588 227.601 241.649 226.89C241.972 226.673 242.245 226.39 242.452 226.061C242.632 225.731 242.698 225.35 242.639 224.978C242.525 224.384 242.253 223.831 241.85 223.38C241.529 222.999 241.268 222.711 241.101 222.484C240.934 222.256 240.847 222.143 240.827 222.156C241.02 222.651 241.306 223.105 241.669 223.493C242.013 223.929 242.243 224.444 242.338 224.991C242.38 225.3 242.321 225.614 242.171 225.887C241.983 226.178 241.737 226.426 241.449 226.616C240.368 227.333 239.39 228.192 238.54 229.17C238.17 229.566 237.861 230.014 237.624 230.501Z" fill="#F6957F"/>
<path d="M233.565 223.286C233.492 223.353 233.853 223.801 234.006 224.47C234.16 225.138 234.067 225.693 234.154 225.72C234.285 225.526 234.368 225.304 234.396 225.071C234.424 224.838 234.396 224.602 234.314 224.383C234.134 223.634 233.612 223.219 233.565 223.286Z" fill="#F6957F"/>
<path d="M249.934 207.372C249.647 207.346 249.359 207.346 249.072 207.372C248.797 207.372 248.456 207.372 248.062 207.372L246.725 207.539C246.23 207.606 245.708 207.766 245.133 207.887C244.846 207.96 244.565 208.081 244.271 208.181C243.963 208.272 243.663 208.389 243.375 208.529C242.063 209.11 240.842 209.878 239.75 210.809C238.666 211.738 237.67 212.765 236.775 213.878C235.939 214.888 235.237 215.837 234.635 216.62C234.033 217.402 233.545 218.037 233.198 218.465C233.006 218.672 232.834 218.896 232.683 219.134C232.905 218.951 233.108 218.747 233.291 218.525C233.672 218.124 234.187 217.509 234.809 216.74C235.431 215.971 236.146 215.042 237.002 214.065C237.897 212.975 238.886 211.966 239.958 211.05C241.026 210.139 242.214 209.378 243.488 208.789C243.774 208.657 244.066 208.541 244.364 208.442C244.658 208.341 244.926 208.214 245.207 208.141C245.768 208.007 246.283 207.84 246.765 207.76L248.102 207.546C248.49 207.499 248.824 207.492 249.098 207.466C249.379 207.458 249.659 207.427 249.934 207.372Z" fill="#263238"/>
<path d="M233.565 185.888C233.578 186.245 233.623 186.601 233.699 186.951C233.806 187.62 233.98 188.616 234.194 189.826C234.669 192.294 235.297 195.617 235.999 199.281C236.701 202.945 237.256 206.329 237.604 208.763C237.771 209.94 237.912 210.916 238.012 211.651C238.049 212.007 238.109 212.36 238.192 212.708C238.2 212.35 238.182 211.993 238.139 211.638C238.085 210.969 237.978 209.96 237.825 208.736C237.53 206.289 237.009 202.919 236.307 199.221C235.605 195.523 234.909 192.2 234.414 189.786C234.174 188.616 233.973 187.653 233.819 186.931C233.758 186.578 233.673 186.229 233.565 185.888Z" fill="#263238"/>
<path d="M230.61 358.617H236.293L235.237 354.097H231.873L230.61 358.617Z" fill="#455A64"/>
<path d="M236.594 168.589C236.594 168.589 236.42 168.683 236.14 168.91C235.75 169.236 235.387 169.594 235.056 169.98C234.551 170.547 234.103 171.163 233.719 171.819C233.254 172.621 232.871 173.468 232.576 174.347C232.299 175.233 232.11 176.144 232.014 177.068C231.944 177.82 231.944 178.576 232.014 179.328C232.056 179.835 232.138 180.339 232.261 180.833C232.355 181.18 232.415 181.368 232.442 181.361C232.469 181.354 232.315 180.579 232.255 179.315C232.221 178.576 232.248 177.836 232.335 177.101C232.447 176.195 232.64 175.3 232.91 174.427C233.201 173.57 233.566 172.74 234 171.946C234.363 171.302 234.777 170.687 235.237 170.107C236.033 169.124 236.641 168.589 236.594 168.589Z" fill="#263238"/>
<path d="M228.985 126.303C228.102 124.725 226.31 123.528 224.545 123.809C224.752 122.202 224.315 120.579 223.329 119.293C222.343 118.008 220.888 117.165 219.283 116.948C217.557 116.795 215.705 117.383 214.141 116.641C213.164 116.179 212.482 115.303 211.687 114.548C208.343 111.472 202.666 111.773 199.236 114.755C195.806 117.737 194.622 122.819 195.746 127.219C196.267 129.265 197.237 131.231 197.237 133.357C197.237 135.363 196.374 137.222 196.187 139.195C196 141.167 196.856 143.548 198.828 143.916L218.353 149.265C219.889 149.741 221.536 149.726 223.063 149.221C224.59 148.717 225.922 147.748 226.872 146.45C228.149 144.638 228.557 142.371 228.931 140.191C229.492 137.348 229.841 134.467 229.975 131.572C230.115 129.759 229.773 127.941 228.985 126.303Z" fill="#7D8488"/>
<path d="M233.318 133.912C232.861 133.359 232.222 132.988 231.516 132.865C230.809 132.743 230.082 132.877 229.466 133.244C226.056 133.29 222.974 133.117 220.453 135.424C219.184 136.565 218.182 137.971 217.516 139.542C216.851 141.114 216.538 142.812 216.601 144.517C216.704 146.231 217.252 147.888 218.19 149.325C219.128 150.763 220.424 151.931 221.951 152.715C223.496 153.458 225.227 153.721 226.923 153.471C228.619 153.22 230.201 152.468 231.466 151.311C232.675 150.102 233.442 148.521 233.643 146.823C233.844 145.125 233.468 143.408 232.576 141.95C233.31 140.716 233.855 139.38 234.194 137.985C234.356 137.283 234.362 136.554 234.211 135.851C234.059 135.147 233.754 134.485 233.318 133.912Z" fill="#7D8488"/>
<path d="M214.776 170.595C217.03 170.617 219.204 169.754 220.829 168.191C222.454 166.629 223.402 164.491 223.468 162.237L224.304 134.046C224.772 126.484 220.767 119.904 213.191 119.643H212.522C209.119 119.725 205.872 121.085 203.426 123.453C200.98 125.821 199.515 129.023 199.323 132.421C198.955 138.974 198.654 146.229 198.755 149.74C199.022 157.001 206.317 157.958 206.317 157.958C206.317 157.958 206.317 159.643 206.27 161.776C206.244 162.915 206.443 164.048 206.857 165.109C207.272 166.171 207.892 167.14 208.683 167.96C209.474 168.78 210.42 169.435 211.466 169.888C212.511 170.34 213.636 170.581 214.776 170.595Z" fill="#FFC5B0"/>
<path d="M206.25 158.065C209.595 157.97 212.843 156.921 215.611 155.042C215.611 155.042 213.431 160.392 206.163 159.903L206.25 158.065Z" fill="#F6957F"/>
<path d="M211.379 146.316C211.161 146.094 210.883 145.94 210.579 145.872C210.276 145.805 209.959 145.826 209.667 145.935C209.378 146.052 209.129 146.251 208.952 146.507C208.775 146.764 208.677 147.067 208.671 147.379C208.673 147.692 208.767 147.997 208.94 148.257C209.114 148.517 209.359 148.721 209.647 148.844C210.054 148.991 210.497 149.002 210.911 148.877C211.228 148.798 211.513 148.623 211.727 148.376C211.856 148.18 211.935 147.955 211.954 147.721C211.974 147.488 211.935 147.253 211.84 147.038C211.709 146.677 211.477 146.362 211.172 146.129" fill="#F6957F"/>
<path d="M201.128 137.878C201.13 138.148 201.238 138.408 201.43 138.599C201.621 138.791 201.881 138.899 202.151 138.901C202.284 138.909 202.416 138.89 202.541 138.846C202.666 138.802 202.781 138.734 202.878 138.644C202.976 138.555 203.055 138.447 203.111 138.327C203.166 138.207 203.197 138.077 203.201 137.944C203.198 137.674 203.089 137.416 202.898 137.225C202.707 137.034 202.448 136.925 202.178 136.921C202.046 136.913 201.914 136.932 201.789 136.976C201.664 137.02 201.549 137.088 201.451 137.177C201.353 137.267 201.274 137.375 201.219 137.495C201.163 137.615 201.133 137.745 201.128 137.878Z" fill="#263238"/>
<path d="M200.901 135.979C201.028 136.112 201.804 135.511 202.907 135.484C204.01 135.457 204.859 135.999 204.973 135.865C205.087 135.731 204.893 135.557 204.532 135.31C204.042 134.984 203.462 134.82 202.874 134.842C202.292 134.85 201.728 135.047 201.269 135.404C200.954 135.671 200.841 135.918 200.901 135.979Z" fill="#263238"/>
<path d="M211.807 137.878C211.809 138.148 211.917 138.408 212.108 138.599C212.3 138.791 212.559 138.899 212.83 138.901C212.962 138.909 213.094 138.89 213.219 138.846C213.344 138.802 213.459 138.734 213.557 138.644C213.655 138.555 213.734 138.447 213.789 138.327C213.845 138.207 213.875 138.077 213.88 137.944C213.876 137.673 213.766 137.414 213.574 137.223C213.381 137.031 213.121 136.923 212.85 136.921C212.718 136.913 212.586 136.932 212.461 136.976C212.337 137.02 212.223 137.089 212.125 137.178C212.028 137.267 211.949 137.375 211.895 137.495C211.84 137.615 211.81 137.746 211.807 137.878Z" fill="#263238"/>
<path d="M211.66 135.985C211.787 136.119 212.562 135.517 213.666 135.497C214.769 135.477 215.618 136.012 215.732 135.872C215.845 135.731 215.658 135.571 215.291 135.317C214.799 134.994 214.22 134.83 213.632 134.848C213.051 134.861 212.49 135.058 212.027 135.41C211.706 135.684 211.599 135.932 211.66 135.985Z" fill="#263238"/>
<path d="M208.069 144.377C207.475 144.205 206.862 144.108 206.244 144.089C205.956 144.089 205.689 144.016 205.635 143.822C205.604 143.529 205.662 143.233 205.802 142.973L206.598 140.78C207.695 137.664 208.477 135.096 208.35 135.056C208.223 135.016 207.233 137.51 206.137 140.626C205.876 141.395 205.622 142.13 205.381 142.832C205.211 143.181 205.168 143.579 205.261 143.956C205.305 144.055 205.372 144.144 205.455 144.214C205.538 144.285 205.637 144.336 205.742 144.364C205.902 144.399 206.066 144.417 206.23 144.417C206.843 144.478 207.46 144.465 208.069 144.377Z" fill="#263238"/>
<path d="M211.372 145.066C211.192 145.066 211.218 146.276 210.202 147.159C209.186 148.041 207.889 147.941 207.882 148.115C207.875 148.289 208.176 148.342 208.724 148.342C209.434 148.335 210.119 148.077 210.657 147.613C211.172 147.167 211.498 146.54 211.566 145.861C211.6 145.353 211.453 145.059 211.372 145.066Z" fill="#263238"/>
<path d="M211.526 131.619C211.646 131.926 212.756 131.753 214.074 131.88C215.391 132.007 216.454 132.334 216.621 132.06C216.695 131.926 216.501 131.646 216.073 131.391C215.493 131.045 214.842 130.834 214.169 130.777C213.496 130.719 212.818 130.815 212.188 131.057C211.713 131.238 211.479 131.478 211.526 131.619Z" fill="#7D8488"/>
<path d="M201.269 132.809C201.469 133.056 202.232 132.776 203.161 132.735C204.091 132.695 204.873 132.869 205.047 132.595C205.12 132.468 204.993 132.214 204.646 131.987C204.181 131.701 203.638 131.568 203.094 131.605C202.552 131.627 202.03 131.819 201.603 132.154C201.282 132.421 201.182 132.682 201.269 132.809Z" fill="#7D8488"/>
<path d="M223.843 139.529C223.963 139.476 228.798 137.931 228.758 142.906C228.717 147.881 223.736 146.811 223.729 146.671C223.723 146.53 223.843 139.529 223.843 139.529Z" fill="#FFC5B0"/>
<path d="M225.26 144.798C225.26 144.798 225.347 144.858 225.495 144.925C225.6 144.969 225.714 144.992 225.829 144.992C225.944 144.992 226.057 144.969 226.163 144.925C226.486 144.725 226.75 144.442 226.927 144.106C227.105 143.77 227.19 143.393 227.173 143.013C227.186 142.586 227.106 142.162 226.939 141.769C226.891 141.611 226.806 141.467 226.689 141.35C226.572 141.234 226.428 141.148 226.27 141.101C226.171 141.073 226.064 141.081 225.97 141.124C225.876 141.167 225.8 141.241 225.755 141.335C225.688 141.468 225.755 141.569 225.695 141.575C225.635 141.582 225.588 141.495 225.628 141.288C225.656 141.164 225.727 141.055 225.829 140.98C225.967 140.877 226.139 140.832 226.31 140.853C226.514 140.897 226.702 140.992 226.859 141.129C227.016 141.266 227.135 141.44 227.206 141.635C227.414 142.066 227.513 142.542 227.494 143.02C227.454 144.023 226.939 144.959 226.217 145.159C226.083 145.196 225.944 145.203 225.807 145.18C225.671 145.157 225.541 145.104 225.428 145.026C225.274 144.919 225.247 144.805 225.26 144.798Z" fill="#F6957F"/>
<path d="M199.564 137.015C199.564 137.102 199.838 137.202 200.172 137.323C200.506 137.443 200.794 137.523 200.841 137.443C200.888 137.363 200.654 137.142 200.279 137.022C199.905 136.901 199.564 136.928 199.564 137.015Z" fill="#F6957F"/>
<path d="M199.156 137.831C199.156 137.918 199.523 137.938 199.951 137.938C200.379 137.938 200.74 137.938 200.754 137.831C200.767 137.724 200.413 137.617 199.951 137.623C199.49 137.63 199.142 137.717 199.156 137.831Z" fill="#F6957F"/>
<path d="M216.474 137.349C216.474 137.436 216.976 137.456 217.571 137.456C218.166 137.456 218.654 137.456 218.661 137.343C218.667 137.229 218.179 137.135 217.571 137.135C216.962 137.135 216.467 137.262 216.474 137.349Z" fill="#F6957F"/>
<path d="M216.541 138.352C216.541 138.446 216.976 138.433 217.484 138.433C217.992 138.433 218.413 138.433 218.433 138.359C218.453 138.285 218.032 138.118 217.484 138.118C216.936 138.118 216.521 138.272 216.541 138.352Z" fill="#F6957F"/>
<path d="M211.947 139.977C211.947 139.977 212.088 140.211 212.442 140.405C212.917 140.661 213.457 140.771 213.993 140.719C214.532 140.667 215.044 140.458 215.464 140.118C215.779 139.857 215.899 139.629 215.866 139.603C215.301 140.01 214.652 140.285 213.967 140.405C213.27 140.413 212.581 140.267 211.947 139.977Z" fill="#F6957F"/>
<path d="M211.439 139.736C211.439 139.817 211.934 140.091 212.649 140.091C213.365 140.091 213.893 139.817 213.86 139.743C213.826 139.67 213.298 139.743 212.649 139.743C212.001 139.743 211.466 139.649 211.439 139.736Z" fill="#F6957F"/>
<path d="M200.64 139.048C201.157 139.426 201.778 139.637 202.419 139.649C203.048 139.757 203.696 139.666 204.271 139.389C204.271 139.295 203.442 139.429 202.446 139.329C201.449 139.228 200.674 138.961 200.64 139.048Z" fill="#F6957F"/>
<path d="M201.182 139.429C201.37 139.673 201.607 139.876 201.877 140.025C202.148 140.173 202.446 140.264 202.753 140.291C203.051 140.373 203.363 140.391 203.668 140.344C203.974 140.296 204.266 140.185 204.525 140.017C203.952 140.043 203.378 140.029 202.807 139.977C202.255 139.826 201.712 139.643 201.182 139.429Z" fill="#F6957F"/>
<path d="M203.502 130.569C203.904 130.731 204.327 130.832 204.759 130.87C205.79 131.025 206.833 131.081 207.875 131.037C208.918 131 209.956 130.859 210.971 130.616C211.397 130.547 211.81 130.412 212.195 130.215C212.195 130.121 210.269 130.629 207.862 130.723C205.454 130.816 203.522 130.475 203.502 130.569Z" fill="#F6957F"/>
<path d="M202.747 129.693C204.06 130.001 205.41 130.127 206.759 130.068C208.108 130.115 209.457 129.98 210.771 129.666C210.771 129.579 208.965 129.747 206.759 129.753C204.552 129.76 202.76 129.606 202.747 129.693Z" fill="#F6957F"/>
<path d="M208.417 133.304C208.504 133.304 208.53 133.07 208.544 132.816C208.557 132.562 208.544 132.348 208.45 132.321C208.356 132.294 208.236 132.508 208.223 132.802C208.209 133.097 208.336 133.317 208.417 133.304Z" fill="#F6957F"/>
<path d="M206.885 133.498C206.885 133.578 207.267 133.498 207.42 133.083C207.574 132.669 207.387 132.381 207.307 132.415C207.227 132.448 207.233 132.695 207.12 132.963C207.006 133.23 206.845 133.418 206.885 133.498Z" fill="#F6957F"/>
<path d="M211.539 144.745C211.539 144.838 211.887 144.892 212.208 145.159C212.529 145.427 212.656 145.734 212.75 145.721C212.843 145.708 212.83 145.246 212.409 144.912C211.987 144.578 211.519 144.665 211.539 144.745Z" fill="#F6957F"/>
<path d="M212.843 144.658C212.843 144.745 213.051 144.792 213.191 144.959C213.332 145.126 213.365 145.313 213.452 145.347C213.539 145.38 213.552 145.3 213.572 145.179C213.578 145.102 213.568 145.024 213.543 144.95C213.518 144.877 213.478 144.809 213.425 144.751C213.375 144.692 213.312 144.645 213.242 144.611C213.172 144.578 213.095 144.559 213.017 144.558C212.897 144.564 212.837 144.618 212.843 144.658Z" fill="#F6957F"/>
<path d="M217.564 164.116C217.564 164.116 217.704 164.116 217.898 163.949C218.159 163.711 218.33 163.389 218.38 163.039C218.455 162.536 218.434 162.024 218.32 161.528C218.166 160.975 218.166 160.39 218.32 159.836C218.42 159.562 218.621 159.315 218.741 158.994C218.842 158.69 218.842 158.362 218.741 158.058C218.675 157.829 218.675 157.585 218.741 157.356C218.823 157.152 218.926 156.957 219.048 156.774C219.156 156.632 219.23 156.467 219.265 156.292C219.3 156.117 219.294 155.937 219.249 155.764C219.142 155.51 218.968 155.483 218.975 155.497C218.982 155.51 219.082 155.59 219.129 155.798C219.147 155.951 219.133 156.107 219.086 156.254C219.04 156.402 218.964 156.538 218.861 156.654C218.715 156.841 218.591 157.045 218.493 157.262C218.407 157.541 218.407 157.839 218.493 158.118C218.574 158.368 218.574 158.637 218.493 158.887C218.4 159.141 218.199 159.388 218.072 159.716C217.891 160.325 217.891 160.973 218.072 161.582C218.195 162.044 218.238 162.523 218.199 162.999C218.176 163.316 218.054 163.618 217.852 163.862C217.664 164.029 217.551 164.096 217.564 164.116Z" fill="#F6957F"/>
<path d="M214.401 164.724C214.401 164.724 214.562 164.724 214.776 164.597C215.058 164.364 215.265 164.052 215.371 163.701C215.762 162.62 216.036 161.499 216.187 160.358C216.21 160.026 216.21 159.693 216.187 159.362C216.164 159.066 216.164 158.768 216.187 158.472C216.187 157.924 216.742 157.737 217.083 157.416C217.255 157.277 217.372 157.08 217.41 156.861C217.419 156.775 217.408 156.688 217.378 156.607C217.348 156.525 217.299 156.452 217.236 156.393C217.016 156.192 216.822 156.313 216.849 156.319C216.875 156.326 217.009 156.319 217.143 156.473C217.182 156.522 217.211 156.579 217.227 156.64C217.243 156.701 217.246 156.765 217.236 156.828C217.186 156.998 217.08 157.146 216.935 157.249C216.782 157.383 216.568 157.483 216.347 157.657C216.222 157.748 216.117 157.865 216.04 158C215.962 158.135 215.914 158.284 215.899 158.439C215.876 158.748 215.876 159.059 215.899 159.368C215.911 159.688 215.9 160.007 215.866 160.325C215.712 161.455 215.475 162.573 215.157 163.668C215.08 163.992 214.921 164.292 214.695 164.537C214.535 164.658 214.395 164.698 214.401 164.724Z" fill="#F6957F"/>
<path d="M196.815 126.724C197.672 127.65 198.721 128.378 199.887 128.858C201.054 129.338 202.311 129.559 203.572 129.504C204.832 129.449 206.065 129.121 207.186 128.541C208.307 127.962 209.288 127.146 210.062 126.149C210.533 126.966 211.201 127.653 212.005 128.146C212.808 128.64 213.723 128.925 214.665 128.975C215.607 129.026 216.546 128.84 217.398 128.435C218.25 128.031 218.987 127.419 219.543 126.657C218.581 130.131 218.87 133.833 220.359 137.115C220.637 137.809 221.072 138.43 221.63 138.927C222.218 139.389 223.676 139.757 224.344 139.422C225.013 139.088 224.665 138.265 224.906 137.617C226.233 134.049 226.116 130.105 224.581 126.621C223.046 123.138 220.213 120.391 216.685 118.963C213.156 117.535 209.21 117.54 205.685 118.975C202.159 120.411 199.333 123.164 197.805 126.651" fill="#7D8488"/>
<path d="M230.021 129.599C230.021 129.553 229.426 129.92 228.423 130.268C227.119 130.755 225.727 130.964 224.338 130.883C222.951 130.805 221.602 130.402 220.399 129.706C219.925 129.386 219.525 128.966 219.229 128.476C219.294 128.772 219.419 129.052 219.596 129.298C219.773 129.544 219.999 129.752 220.259 129.907C221.469 130.706 222.87 131.168 224.318 131.244C225.755 131.339 227.195 131.089 228.517 130.516C228.913 130.341 229.293 130.133 229.654 129.894C229.901 129.727 230.035 129.62 230.021 129.599Z" fill="#FAFAFA"/>
<path d="M229.453 132.053C227.736 132.592 225.943 132.847 224.144 132.809C222.353 132.648 220.6 132.197 218.955 131.472C219.371 131.813 219.841 132.082 220.346 132.267C222.762 133.293 225.462 133.44 227.975 132.682C228.499 132.556 228.999 132.343 229.453 132.053Z" fill="#FAFAFA"/>
<path d="M196.22 123.675C196.26 123.675 196.187 123.18 196.3 122.338C196.468 121.117 196.957 119.963 197.718 118.994C198.271 118.274 198.969 117.678 199.768 117.245C200.566 116.812 201.446 116.551 202.352 116.48C204.595 116.33 206.828 116.907 208.718 118.125C209.219 118.43 209.695 118.774 210.142 119.155C210.59 119.516 210.964 119.951 211.432 120.325C211.67 120.519 211.945 120.66 212.241 120.74C212.545 120.817 212.866 120.796 213.158 120.679C213.645 120.415 214.082 120.067 214.448 119.65C215.158 118.998 216.063 118.598 217.022 118.513C217.859 118.427 218.701 118.592 219.443 118.988C219.977 119.282 220.446 119.681 220.822 120.162C221.198 120.642 221.472 121.193 221.63 121.783C221.732 122.221 221.789 122.67 221.797 123.12C221.833 123.005 221.851 122.886 221.85 122.766C221.863 122.422 221.834 122.079 221.763 121.743C221.627 121.118 221.363 120.528 220.986 120.011C220.61 119.494 220.13 119.061 219.577 118.74C218.796 118.302 217.901 118.111 217.009 118.192C215.991 118.273 215.03 118.689 214.274 119.376C213.928 119.758 213.522 120.082 213.071 120.332C212.832 120.415 212.575 120.429 212.329 120.372C212.083 120.316 211.858 120.19 211.68 120.011C211.259 119.683 210.871 119.228 210.403 118.854C209.941 118.452 209.447 118.09 208.925 117.771C206.971 116.514 204.662 115.927 202.345 116.099C201.335 116.193 200.358 116.508 199.483 117.022C198.726 117.473 198.067 118.071 197.544 118.78C196.78 119.798 196.317 121.01 196.207 122.278C196.169 122.618 196.169 122.961 196.207 123.301C196.2 123.426 196.205 123.551 196.22 123.675Z" fill="#FAFAFA"/>
<path d="M230.021 129.599C229.917 130.122 229.856 130.652 229.841 131.184C229.754 132.154 229.593 133.498 229.326 134.962C229.099 136.211 228.8 137.446 228.43 138.66C228.236 139.151 228.071 139.654 227.935 140.164C228.256 139.735 228.5 139.253 228.657 138.74C229.097 137.532 229.431 136.288 229.654 135.022C229.883 133.759 230.024 132.481 230.075 131.198C230.126 130.665 230.108 130.128 230.021 129.599Z" fill="#FAFAFA"/>
</g>
<defs>
<clipPath id="clip0_537_3749">
<rect width="375" height="370" fill="white"/>
</clipPath>
</defs>
</svg>
