<svg width="74" height="74" viewBox="0 0 74 74" fill="none" xmlns="http://www.w3.org/2000/svg">
<circle cx="37" cy="37" r="30.5867" fill="#98C2C0"/>
<circle cx="37" cy="37" r="36.5" stroke="#4C9591" stroke-dasharray="2 2"/>
<circle cx="37" cy="37" r="27.6267" fill="#1F7B76"/>
<path d="M45.4992 27.7675C45.9254 27.3563 46.4926 27.1289 47.0812 27.1334C47.6697 27.1379 48.2334 27.374 48.6535 27.7917C49.0736 28.2095 49.3171 28.7763 49.3326 29.3726C49.3482 29.9689 49.1346 30.5479 48.7369 30.9876L36.6635 46.2907C36.4559 46.5173 36.2054 46.6992 35.9268 46.8254C35.6483 46.9517 35.3475 47.0197 35.0424 47.0254C34.7374 47.0311 34.4343 46.9744 34.1513 46.8587C33.8684 46.743 33.6113 46.5707 33.3956 46.352L25.3891 38.2374C25.1661 38.0268 24.9872 37.7729 24.8632 37.4908C24.7392 37.2086 24.6725 36.9041 24.6671 36.5952C24.6617 36.2864 24.7178 35.9796 24.8319 35.6932C24.9461 35.4068 25.1159 35.1467 25.3314 34.9283C25.5469 34.7099 25.8036 34.5377 26.0862 34.422C26.3688 34.3063 26.6715 34.2495 26.9762 34.255C27.2809 34.2604 27.5814 34.328 27.8598 34.4537C28.1382 34.5794 28.3887 34.7607 28.5965 34.9867L34.9327 41.4054L45.4417 27.835C45.4606 27.8114 45.4808 27.7889 45.5022 27.7675H45.4992Z" fill="white"/>
</svg>
