<svg width="324" height="325" viewBox="0 0 324 325" fill="none" xmlns="http://www.w3.org/2000/svg">
<defs>
<filter id="filter0_d_490_3357" x="44" y="82" width="243" height="243" filterUnits="userSpaceOnUse" color-interpolation-filters="sRGB">
<feFlood flood-opacity="0" result="BackgroundImageFix"/>
<feColorMatrix in="SourceAlpha" type="matrix" values="0 0 0 0 0 0 0 0 0 0 0 0 0 0 0 0 0 0 127 0" result="hardAlpha"/>
<feOffset/>
<feGaussianBlur stdDeviation="12.5"/>
<feColorMatrix type="matrix" values="0 0 0 0 1 0 0 0 0 1 0 0 0 0 1 0 0 0 0.15 0"/>
<feBlend mode="normal" in2="BackgroundImageFix" result="effect1_dropShadow_490_3357"/>
<feBlend mode="normal" in="SourceGraphic" in2="effect1_dropShadow_490_3357" result="shape"/>
</filter>
<linearGradient id="paint0_linear_490_3357" x1="110.313" y1="129.32" x2="228.597" y2="238.564" gradientUnits="userSpaceOnUse">
<stop stop-color="#75B482"/>
<stop offset="1" stop-color="#1F7B76"/>
</linearGradient>
<linearGradient id="paint1_linear_490_3357" x1="90.426" y1="218.195" x2="157.254" y2="291.426" gradientUnits="userSpaceOnUse">
<stop stop-color="#75B482"/>
<stop offset="1" stop-color="#1F7B76"/>
</linearGradient>
<linearGradient id="paint2_linear_490_3357" x1="166.254" y1="218.583" x2="233.082" y2="291.813" gradientUnits="userSpaceOnUse">
<stop stop-color="#75B482"/>
<stop offset="1" stop-color="#1F7B76"/>
</linearGradient>
</defs>
<g filter="url(#filter0_d_490_3357)">
<path d="M262 203.5C262 256.795 218.795 300 165.5 300C112.205 300 69 256.795 69 203.5C69 150.205 112.205 107 165.5 107C218.795 107 262 150.205 262 203.5Z" fill="#E1EEE4" fill-opacity="0.2"/>
</g>
<path fill-rule="evenodd" clip-rule="evenodd" d="M111.414 171.372L119.361 171.457L119.964 211.779C136.97 262.544 199.073 257.603 210.088 211.377L210.745 171.811L219.035 171.447C220.054 170.704 220.137 169.774 219.487 168.7L203.319 157.99V130.23C203.122 129.753 202.792 129.486 202.34 129.408L190.245 129.32C189.744 129.49 189.425 129.846 189.363 130.477V147.632C188.277 147.937 187.365 147.806 186.608 147.291L166.681 133.462C165.805 133.063 164.973 133.035 164.194 133.452L110.739 168.671C109.986 169.69 110.245 170.587 111.414 171.372Z" fill="url(#paint0_linear_490_3357)"/>
<path fill-rule="evenodd" clip-rule="evenodd" d="M157.946 199.671C154.126 197.649 148.717 187.777 156.745 181.83C149.819 177.023 143.038 176.507 138.712 179.86C127.829 192.061 147.104 207.524 151.562 212.092C163.41 222.003 162.734 228.308 157.262 240.281C158.446 240.371 159.567 240.118 160.578 239.244C179.466 226.789 192.699 208.555 197.267 195.095C204.863 168.617 170.562 162.053 159.772 179.609C164.468 178.866 170.369 179.63 172.911 183.592C173.605 183.462 174.231 182.914 174.674 181.519C182.232 163.914 215.654 183.027 174.065 216.322C173.392 207.919 165.916 204.395 157.946 199.671Z" fill="white"/>
<path d="M174.695 168.851C178.081 168.851 180.826 166.106 180.826 162.72C180.826 159.334 178.081 156.589 174.695 156.589C171.309 156.589 168.564 159.334 168.564 162.72C168.564 166.106 171.309 168.851 174.695 168.851Z" fill="white"/>
<path fill-rule="evenodd" clip-rule="evenodd" d="M143.427 163.868C146.812 163.868 149.556 166.611 149.556 169.999C149.556 173.384 146.812 176.13 143.427 176.13C140.72 176.13 138.423 174.375 137.61 171.939C137.079 172.236 136.466 172.405 135.815 172.405C133.78 172.405 132.131 170.755 132.131 168.721C132.131 166.686 133.78 165.036 135.815 165.036C136.907 165.036 137.888 165.512 138.562 166.265C139.683 164.806 141.446 163.868 143.427 163.868Z" fill="white"/>
<path fill-rule="evenodd" clip-rule="evenodd" d="M172.848 189.37L172.846 192.036C168.527 192.212 168.043 190.93 168.043 195.894C168.043 199.249 167.987 198.716 172.756 198.787C173.018 199.975 172.645 201.705 172.919 202.726C173.258 203.993 175.134 203.608 176.205 203.596C177.49 203.583 179.136 203.928 179.487 202.717C179.793 201.657 179.375 199.989 179.661 198.785C184.847 198.766 184.389 199.391 184.366 193.844C184.345 191.263 181.979 192.204 179.642 192.06C178.91 188.549 181.845 186.772 174.325 187.255C172.829 187.351 172.852 187.989 172.848 189.37Z" fill="white"/>
<path fill-rule="evenodd" clip-rule="evenodd" d="M90.4857 221.689C90.3866 222.443 90.4318 224.549 90.4728 225.583C91.8155 258.812 124.221 268.539 151.277 280.147C154.348 281.464 159.999 284.842 162.422 285.303C166.336 271.582 162.816 257.202 151.695 250.712C146.91 247.919 141.981 246.602 136.394 244.408C126.424 240.49 125.79 237.093 122.275 236.3C116.25 244.951 127.646 249.988 131.344 253.967C122.697 254.868 111.315 249.725 105.931 245.171C97.0422 237.651 94.4903 230.338 91.5698 218.195L90.4857 221.689Z" fill="url(#paint1_linear_490_3357)"/>
<path fill-rule="evenodd" clip-rule="evenodd" d="M239.731 222.079C239.83 222.833 239.785 224.937 239.744 225.971C238.401 259.202 205.996 268.927 178.94 280.535C175.869 281.852 170.22 285.23 167.795 285.691C163.883 271.97 167.403 257.59 178.522 251.1C183.309 248.307 188.236 246.992 193.823 244.796C203.793 240.877 204.427 237.481 207.942 236.687C213.969 245.339 202.571 250.376 198.873 254.357C207.52 255.258 218.902 250.115 224.286 245.559C233.175 238.039 235.727 230.726 238.647 218.583L239.731 222.079Z" fill="url(#paint2_linear_490_3357)"/>
<path opacity="0.5" d="M95 270H22C21.4477 270 21 269.552 21 269V226" stroke="#1F7B76" stroke-linecap="round" stroke-dasharray="4 4"/>
<path opacity="0.5" d="M262 208H302C302.552 208 303 207.552 303 207V177" stroke="#1F7B76" stroke-linecap="round" stroke-dasharray="4 4"/>
<path opacity="0.5" d="M161 107V42" stroke="#1F7B76" stroke-linecap="round" stroke-dasharray="4 4"/>
<path opacity="0.5" d="M223.5 126C223.5 126.276 223.724 126.5 224 126.5C224.276 126.5 224.5 126.276 224.5 126L223.5 126ZM267.5 70L267.5 72.0127L268.5 72.0127L268.5 70L267.5 70ZM267.5 76.0382L267.5 80.0636L268.5 80.0636L268.5 76.0382L267.5 76.0382ZM267.5 84.0891L267.5 86.1018L268.5 86.1018L268.5 84.0891L267.5 84.0891ZM267.5 86.1018C267.5 86.3779 267.276 86.6018 267 86.6018L267 87.6018C267.828 87.6018 268.5 86.9302 268.5 86.1018L267.5 86.1018ZM267 86.6018L264.9 86.6018L264.9 87.6018L267 87.6018L267 86.6018ZM260.7 86.6018L256.5 86.6018L256.5 87.6018L260.7 87.6018L260.7 86.6018ZM252.3 86.6018L248.1 86.6018L248.1 87.6018L252.3 87.6018L252.3 86.6018ZM243.9 86.6018L239.7 86.6018L239.7 87.6018L243.9 87.6018L243.9 86.6018ZM235.5 86.6018L231.3 86.6018L231.3 87.6018L235.5 87.6018L235.5 86.6018ZM227.1 86.6018L225 86.6018L225 87.6018L227.1 87.6018L227.1 86.6018ZM225 86.6018C224.172 86.6018 223.5 87.2734 223.5 88.1018L224.5 88.1018C224.5 87.8257 224.724 87.6018 225 87.6018L225 86.6018ZM223.5 88.1018L223.5 89.9967L224.5 89.9967L224.5 88.1018L223.5 88.1018ZM223.5 93.7865L223.5 97.5763L224.5 97.5763L224.5 93.7865L223.5 93.7865ZM223.5 101.366L223.5 105.156L224.5 105.156L224.5 101.366L223.5 101.366ZM223.5 108.946L223.5 112.736L224.5 112.736L224.5 108.946L223.5 108.946ZM223.5 116.525L223.5 120.315L224.5 120.315L224.5 116.525L223.5 116.525ZM223.5 124.105L223.5 126L224.5 126L224.5 124.105L223.5 124.105Z" fill="#1F7B76"/>
<path opacity="0.5" d="M90 143L90 103C90 102.448 89.5523 102 89 102L53 102" stroke="#1F7B76" stroke-linecap="round" stroke-dasharray="4 4"/>
<g opacity="0.6">
<circle cx="303" cy="156" r="20" stroke="#1F7B76" stroke-linecap="round" stroke-dasharray="2 5"/>
<path fill-rule="evenodd" clip-rule="evenodd" d="M307.236 146.382C307.187 146.013 306.874 145.73 306.495 145.73C306.081 145.73 305.746 146.067 305.746 146.484V147.318H299.182V146.484L299.175 146.382C299.125 146.013 298.812 145.73 298.433 145.73C298.02 145.73 297.685 146.067 297.685 146.484V147.337C294.618 147.548 292.73 149.535 292.73 152.741V161.842C292.73 165.283 294.847 167.351 298.239 167.351H306.68C310.076 167.351 312.189 165.318 312.189 161.918V152.741C312.199 149.534 310.317 147.547 307.243 147.337V146.484L307.236 146.382ZM305.746 148.826V149.793L305.753 149.896C305.803 150.264 306.116 150.548 306.495 150.548C306.908 150.548 307.243 150.21 307.243 149.793V148.849C309.479 149.035 310.699 150.381 310.692 152.739V153.176H294.227V152.741C294.227 150.385 295.453 149.036 297.685 148.849V149.793L297.692 149.896C297.741 150.264 298.054 150.548 298.433 150.548C298.847 150.548 299.182 150.21 299.182 149.793V148.826H305.746ZM294.227 154.684V161.842C294.227 164.44 295.663 165.843 298.239 165.843H306.68C309.264 165.843 310.692 164.469 310.692 161.918L310.692 154.684H294.227ZM307.65 157.858C307.65 157.441 307.315 157.103 306.901 157.103L306.791 157.11C306.425 157.16 306.144 157.476 306.144 157.858C306.144 158.274 306.479 158.612 306.901 158.612L307.003 158.605C307.368 158.555 307.65 158.239 307.65 157.858ZM302.473 157.103C302.887 157.103 303.222 157.441 303.222 157.858C303.222 158.239 302.94 158.555 302.575 158.605L302.473 158.612C302.051 158.612 301.716 158.274 301.716 157.858C301.716 157.476 301.997 157.16 302.362 157.11L302.473 157.103ZM298.784 157.858C298.784 157.441 298.449 157.103 298.036 157.103L297.925 157.11C297.56 157.16 297.278 157.476 297.278 157.858C297.278 158.274 297.613 158.612 298.027 158.612L298.137 158.605C298.503 158.555 298.784 158.239 298.784 157.858ZM306.901 161.012C307.315 161.012 307.65 161.35 307.65 161.766C307.65 162.148 307.368 162.464 307.003 162.514L306.901 162.52C306.479 162.52 306.144 162.183 306.144 161.766C306.144 161.384 306.425 161.069 306.791 161.019L306.901 161.012ZM303.222 161.766C303.222 161.35 302.887 161.012 302.473 161.012L302.362 161.019C301.997 161.069 301.716 161.384 301.716 161.766C301.716 162.183 302.051 162.52 302.473 162.52L302.575 162.514C302.94 162.464 303.222 162.148 303.222 161.766ZM298.036 161.012C298.449 161.012 298.784 161.35 298.784 161.766C298.784 162.148 298.503 162.464 298.137 162.514L298.027 162.52C297.613 162.52 297.278 162.183 297.278 161.766C297.278 161.384 297.56 161.069 297.925 161.019L298.036 161.012Z" fill="#1F7B76"/>
</g>
<g opacity="0.6">
<circle cx="21" cy="205" r="20" stroke="#1F7B76" stroke-linecap="round" stroke-dasharray="2 5"/>
<path fill-rule="evenodd" clip-rule="evenodd" d="M29.9885 200.28C30.7129 200.842 31.1572 201.675 31.2329 202.582L31.2437 202.799V211.566C31.2437 213.825 29.4588 215.663 27.222 215.782H25.0707C24.0426 215.762 23.2112 214.962 23.1356 213.956L23.1247 213.804V210.713C23.1247 210.377 22.875 210.097 22.541 210.042L22.4437 210.031H19.5561C19.2112 210.042 18.9302 210.29 18.8869 210.614L18.8761 210.713V213.794C18.8761 213.858 18.8642 213.933 18.8545 213.987L18.8437 214.01L18.8318 214.085C18.7031 215.005 17.9464 215.706 17.0058 215.772L16.8653 215.782H14.9302C12.6707 215.782 10.822 214.01 10.7031 211.782V202.799C10.7129 201.879 11.1139 201.025 11.7842 200.431L18.5193 195.014C19.8923 193.924 21.8166 193.88 23.2318 194.885L23.4058 195.014L29.9885 200.28ZM29.7291 211.739L29.741 211.566V202.809C29.7291 202.345 29.5356 201.912 29.2004 201.589L29.0599 201.469L22.4653 196.193C21.6437 195.533 20.4761 195.502 19.6112 196.074L19.448 196.193L12.875 201.491C12.4977 201.771 12.2707 202.193 12.2166 202.636L12.2047 202.809V211.566C12.2047 213.004 13.3291 214.182 14.7572 214.269H16.8653C17.1031 214.269 17.3085 214.107 17.3399 213.88L17.3626 213.686L17.3734 213.631V210.713C17.3734 209.556 18.2599 208.616 19.395 208.528H22.4437C23.5993 208.528 24.5399 209.416 24.6274 210.551V213.804C24.6274 214.031 24.7896 214.226 25.0058 214.269H27.0156C28.4642 214.269 29.6426 213.156 29.7291 211.739Z" fill="#1F7B76"/>
</g>
<g opacity="0.5">
<path fill-rule="evenodd" clip-rule="evenodd" d="M25.8384 91.7336L25.8076 91.7316C24.384 91.6654 22.375 93.3771 21.6327 94.6152C20.8182 95.7277 20.8026 97.2051 21.5138 98.9141L21.626 99.1721C23.5002 103.788 30.533 110.812 35.1307 112.735C36.8898 113.558 38.4576 113.573 39.6929 112.683C40.779 112.062 42.5601 109.997 42.5086 108.529C42.4598 107.926 42.1791 107.433 41.7432 106.984L41.6369 106.879L41.3408 106.605C40.2685 105.646 38.4121 104.281 37.8379 104.16C37.1638 104.02 36.7066 104.145 35.9856 104.543L35.717 104.696C35.2042 104.991 35.0209 105.042 34.778 104.953C32.2127 103.9 30.4037 102.082 29.3437 99.4745C29.2748 99.2813 29.3088 99.1126 29.5318 98.7035L29.6493 98.4948C30.1353 97.646 30.2982 97.1662 30.1452 96.4273L30.1181 96.3315C29.867 95.6005 28.328 93.5379 27.4735 92.64L27.3358 92.5007C26.8905 92.0633 26.4008 91.7821 25.8384 91.7336ZM25.7189 93.3124L25.7775 93.3237C25.8801 93.3526 26.0011 93.4237 26.1373 93.5407L26.2366 93.6315L26.4239 93.8286C27.1504 94.6308 28.558 96.5226 28.6045 96.7488C28.6485 96.9612 28.5999 97.1387 28.3693 97.5569L28.2487 97.7701C27.741 98.6591 27.5839 99.2323 27.8756 100.043C29.1071 103.074 31.2267 105.204 34.2123 106.429C34.9823 106.711 35.5282 106.598 36.3015 106.179L36.5665 106.03C37.0912 105.726 37.2833 105.66 37.5172 105.709C37.7458 105.757 39.7908 107.292 40.5404 108.013L40.628 108.1C40.8213 108.299 40.927 108.485 40.9383 108.623C40.9488 108.944 40.6264 109.549 40.0574 110.209C39.6523 110.679 39.1263 111.159 38.8982 111.319L38.8437 111.354C38.1069 111.88 37.1969 111.902 35.9936 111.39L35.7645 111.287C31.6076 109.548 25.0704 103.068 23.1823 98.8087L23.0704 98.5455C22.4853 97.2514 22.4368 96.3054 22.8569 95.6171L22.9411 95.491C23.428 94.6848 24.8953 93.415 25.6259 93.3173L25.7189 93.3124ZM34.4288 91.9932L34.5357 91.9979C38.7842 92.4721 42.1392 95.8411 42.6166 100.112C42.6652 100.546 42.3545 100.937 41.9227 100.986C41.4909 101.035 41.1015 100.723 41.053 100.289C40.6576 96.7523 37.8797 93.9628 34.3621 93.5702C33.9303 93.522 33.6191 93.1309 33.667 92.6968C33.707 92.3349 33.9837 92.0574 34.3248 92.0028L34.4288 91.9932ZM34.4933 95.7308L34.5994 95.7442C36.7706 96.1697 38.4673 97.8755 38.8905 100.058C38.9736 100.487 38.6953 100.902 38.2688 100.986C37.8423 101.07 37.4292 100.79 37.3461 100.361C37.0455 98.8105 35.8406 97.5992 34.2984 97.2969C33.8719 97.2134 33.5936 96.798 33.6767 96.3693C33.746 96.0119 34.0444 95.7581 34.3888 95.7317L34.4933 95.7308Z" fill="#1F7B76"/>
</g>
<circle opacity="0.6" cx="32" cy="102" r="20" stroke="#1F7B76" stroke-linecap="round" stroke-dasharray="2 5"/>
<g opacity="0.6">
<circle cx="161" cy="21" r="20" stroke="#1F7B76" stroke-linecap="round" stroke-dasharray="2 5"/>
<path fill-rule="evenodd" clip-rule="evenodd" d="M154.495 11.6111C150.526 12.889 148.756 17.2224 150.086 21.3562C150.762 23.3028 151.86 25.0524 153.303 26.4878C155.282 28.4103 157.457 30.1021 159.794 31.5396L160.06 31.6985C160.314 31.8507 160.632 31.848 160.884 31.6916L161.132 31.5376C163.466 30.1021 165.641 28.4103 167.613 26.4945C169.063 25.0524 170.161 23.3028 170.831 21.3731C172.167 17.2249 170.389 12.8895 166.418 11.6112L166.131 11.5256C164.311 11.025 162.376 11.2717 160.745 12.195L160.456 12.3668L160.171 12.1959C158.451 11.2199 156.395 11 154.495 11.6111ZM159.783 13.8154L159.996 13.968C160.276 14.1688 160.655 14.1648 160.931 13.9581C162.369 12.8817 164.23 12.5684 165.934 13.1153C169.011 14.1058 170.411 17.52 169.331 20.8724C168.746 22.5586 167.777 24.1022 166.505 25.3681L165.934 25.9104C164.396 27.3396 162.733 28.6335 160.967 29.7736L160.461 30.0917L160.615 30.189C158.384 28.8171 156.301 27.1966 154.412 25.3614C153.146 24.1022 152.177 22.5586 151.586 20.8555C150.511 17.5168 151.905 14.105 154.98 13.1151C156.604 12.5928 158.374 12.8518 159.783 13.8154ZM164.644 15.577C164.228 15.4442 163.783 15.6735 163.65 16.0892C163.517 16.5048 163.746 16.9494 164.162 17.0821C164.98 17.3431 165.563 18.0789 165.636 18.947C165.672 19.3818 166.055 19.7046 166.49 19.668C166.925 19.6315 167.248 19.2494 167.212 18.8146C167.085 17.312 166.072 16.033 164.644 15.577Z" fill="#1F7B76"/>
</g>
<g opacity="0.6">
<circle cx="268" cy="50" r="20" stroke="#1F7B76" stroke-linecap="round" stroke-dasharray="2 5"/>
<path fill-rule="evenodd" clip-rule="evenodd" d="M275.516 53.1621C276.87 53.1623 278.288 53.0515 279.594 52.8328C280.424 52.6941 281.435 52.4593 282.203 52.1318C282.43 52.0352 282.916 51.7617 282.943 51.7524L282.942 53.9802C282.942 54.2866 282.967 54.3876 282.805 54.5824C282.65 54.7691 282.205 55.006 281.891 55.1299C278.943 56.292 274.082 56.3046 270.899 55.7162C270.344 55.6135 267.75 55.0787 267.75 54.2382V51.9158C267.75 51.6832 267.975 51.881 268.079 51.9342C269.009 52.4085 270.029 52.6546 271.074 52.8306C272.602 53.0882 273.949 53.162 275.516 53.1621ZM257.475 55.5563C255.853 55.5594 254.602 54.5105 254.11 53.4966C253.391 52.0166 253.634 50.4496 254.533 49.3606C255.04 48.7457 255.392 48.5592 256.088 48.2066C257.251 47.6168 258.583 47.0425 259.729 46.4505L261.539 45.5827C261.666 45.6758 262.401 46.9121 262.535 47.135C263.286 48.3791 264.048 50.0708 264.552 51.4602C264.634 51.6862 264.835 52.2002 264.865 52.4104C264.753 52.4943 259.915 54.8083 259.565 54.9735C258.861 55.3064 258.401 55.5546 257.475 55.5563ZM268.654 51.3956C269.069 51.2159 269.497 50.9886 269.917 50.7894C270.391 50.5644 271.343 50.1336 271.75 49.8489C272.076 49.6208 271.941 49.6197 272.373 49.7673C272.844 49.9283 273.287 50.0823 273.751 50.2405L277.902 51.6587C278.337 51.8037 278.854 51.9555 279.278 52.1309C279.234 52.1663 279.245 52.156 279.168 52.1688C276.949 52.5367 273.859 52.5077 271.689 52.1942C271.134 52.1142 270.613 52.0141 270.081 51.8893C269.932 51.8544 268.782 51.5379 268.654 51.3956ZM272.626 49.0775C272.718 48.93 272.71 48.9509 272.921 48.9337C273.049 48.9231 273.173 48.9125 273.301 48.9029C273.564 48.883 273.83 48.8667 274.096 48.8562C275.706 48.792 277.257 48.8395 278.851 49.0542C279.899 49.1955 281.858 49.5698 282.673 50.2208C283.158 50.609 282.876 50.9158 282.486 51.1674C282.148 51.3862 281.749 51.5448 281.325 51.6819C280.594 51.9186 280.781 51.8817 280.06 51.6279C279.241 51.3395 278.395 51.0756 277.575 50.7803C276.762 50.4873 275.918 50.2058 275.091 49.9321C274.672 49.7936 274.281 49.6432 273.857 49.5102C273.653 49.4465 272.743 49.1547 272.626 49.0775ZM267.435 42.7381C268.414 42.2486 269.504 42.1521 270.594 42.5826C272.857 43.4772 273.696 46.2657 272.33 48.2571C272.191 48.4598 271.945 48.7545 271.766 48.9187L271.367 49.2299C270.98 49.5071 269.9 49.9995 269.448 50.2131L266.181 51.7846C266.023 51.86 265.685 52.054 265.538 52.0862C265.485 51.9921 265.414 51.7262 265.374 51.6083C265.318 51.4437 265.264 51.288 265.205 51.131C264.442 49.0912 263.627 47.4409 262.455 45.6245C262.388 45.5213 262.262 45.3575 262.215 45.2579L267.435 42.7381ZM273.227 48.1801C273.305 47.9466 273.428 47.7408 273.507 47.4766C273.58 47.2316 273.644 46.9711 273.678 46.7061C273.883 45.1066 273.227 43.5759 272.11 42.656C271.442 42.1055 270.548 41.646 269.388 41.5909C268.099 41.5298 267.377 41.9707 266.426 42.4175C264.706 43.2256 263.013 44.0708 261.305 44.8877C259.59 45.7082 257.905 46.5374 256.196 47.3474C255.216 47.8121 254.638 48.0819 253.957 48.9143C251.967 51.3479 253.095 55.1751 256.152 56.0763C257.29 56.4117 258.331 56.3271 259.354 55.8799C259.783 55.692 260.208 55.471 260.632 55.2667C261.247 54.9711 266.847 52.2446 267.025 52.1923C267.027 52.6782 266.962 54.3287 267.097 54.6574C267.314 55.1821 267.914 55.5392 268.501 55.7904C269.69 56.2989 271.243 56.5585 272.653 56.6929C275.48 56.9621 279.244 56.8375 281.769 55.9564C282.409 55.7331 283.045 55.3998 283.368 55.0158C283.666 54.6603 283.665 54.4654 283.665 54.0446C283.665 53.3613 283.713 50.5939 283.606 50.298C283.082 48.8571 279.465 48.3719 278.096 48.2358C276.424 48.0697 274.907 48.1027 273.227 48.1801Z" fill="#1F7B76"/>
<path fill-rule="evenodd" clip-rule="evenodd" d="M268.655 43.5841C268.116 43.6424 267.629 43.8169 267.186 44.0157C267.062 44.071 266.953 44.1151 266.898 44.201C266.757 44.4163 266.853 44.7302 267.137 44.7705C267.459 44.8163 268.658 43.8959 269.803 44.4686C270.797 44.9659 270.746 45.886 271.196 45.9307C271.471 45.958 271.664 45.7003 271.569 45.4342C271.503 45.2511 271.32 44.9726 271.218 44.8172C270.757 44.1178 269.949 43.4438 268.655 43.5841Z" fill="#1F7B76"/>
</g>
</svg>
