<svg width="32" height="32" viewBox="0 0 32 32" fill="none" xmlns="http://www.w3.org/2000/svg">
<g id="ion:warning-outline">
<path id="Vector" d="M5.34812 27.8906H26.6519C26.9979 27.8906 27.338 27.8007 27.6389 27.6299C27.9398 27.4591 28.1912 27.2131 28.3686 26.9161C28.546 26.619 28.6433 26.281 28.651 25.9351C28.6587 25.5892 28.5765 25.2472 28.4125 24.9425L17.7612 5.16125C17.0056 3.75875 14.9944 3.75875 14.2387 5.16125L3.5875 24.9425C3.42347 25.2472 3.34128 25.5892 3.34897 25.9351C3.35667 26.281 3.45397 26.619 3.63138 26.9161C3.80879 27.2131 4.06023 27.4591 4.36113 27.6299C4.66204 27.8007 5.00211 27.8906 5.34812 27.8906Z" stroke="#E8B006" stroke-width="2" stroke-linecap="round" stroke-linejoin="round"/>
<path id="Vector_2" d="M15.6413 12.212L16 19.837L16.3581 12.2151C16.3604 12.1664 16.3526 12.1177 16.3354 12.0721C16.3181 12.0265 16.2918 11.9848 16.2579 11.9497C16.224 11.9146 16.1834 11.8868 16.1384 11.868C16.0934 11.8491 16.045 11.8396 15.9963 11.8401C15.9483 11.8406 15.901 11.8506 15.857 11.8697C15.8131 11.8888 15.7734 11.9165 15.7403 11.9511C15.7072 11.9858 15.6814 12.0267 15.6644 12.0715C15.6474 12.1163 15.6395 12.1641 15.6413 12.212Z" stroke="#E8B006" stroke-width="2" stroke-linecap="round" stroke-linejoin="round"/>
<path id="Vector_3" d="M16 24.8281C15.7528 24.8281 15.5111 24.7548 15.3055 24.6175C15.1 24.4801 14.9398 24.2849 14.8452 24.0565C14.7505 23.8281 14.7258 23.5767 14.774 23.3343C14.8223 23.0918 14.9413 22.8691 15.1161 22.6942C15.2909 22.5194 15.5137 22.4004 15.7561 22.3521C15.9986 22.3039 16.2499 22.3287 16.4784 22.4233C16.7068 22.5179 16.902 22.6781 17.0393 22.8837C17.1767 23.0892 17.25 23.3309 17.25 23.5781C17.25 23.9096 17.1183 24.2276 16.8839 24.462C16.6495 24.6964 16.3315 24.8281 16 24.8281Z" fill="#E8B006"/>
</g>
</svg>
