<svg width="88" height="88" viewBox="0 0 88 88" fill="none" xmlns="http://www.w3.org/2000/svg">
<path fill-rule="evenodd" clip-rule="evenodd" d="M35.9364 28.144L36.1931 38.0268C40.8137 38.0268 41.9688 37.1284 41.9688 42.2623C41.9688 45.3427 42.2255 49.9633 41.5838 52.5303L32.7277 52.9153L31.8293 57.7926C38.7601 61.643 48.7713 60.1028 55.4455 57.9209C54.6754 52.5303 52.7501 45.8561 51.595 40.3371C50.0548 33.4063 51.4666 27.5022 51.3383 20.1863C45.1775 18.5178 39.6585 16.3359 34.6529 21.3415C16.1707 39.9521 37.3483 52.9153 35.1663 43.4175C34.6529 40.8505 31.7009 40.7222 32.3427 35.2032C32.5994 32.8929 34.1395 28.6574 35.9364 28.0156V28.144Z" fill="#1F7B76"/>
<path fill-rule="evenodd" clip-rule="evenodd" d="M34.1396 59.9746C33.8829 64.7235 33.7545 69.6008 33.6262 74.3497C33.4978 78.8419 32.2143 85.0026 36.8349 85.3877C42.0972 85.9011 41.0704 79.2269 41.1987 74.8631C41.3271 71.141 41.8405 64.7235 41.3271 61.2581L34.1396 59.9746Z" fill="#1F7B76"/>
<path fill-rule="evenodd" clip-rule="evenodd" d="M45.1777 61.5146C44.921 66.1352 45.5627 72.1676 45.8194 77.0448C46.0761 82.9489 46.2045 87.4411 52.8786 84.2324C54.0337 80.1252 52.8786 65.4934 52.3652 60.1028L45.0493 61.5146H45.1777Z" fill="#1F7B76"/>
<path fill-rule="evenodd" clip-rule="evenodd" d="M41.7122 2.73093C31.701 5.55461 36.5783 19.0312 45.5627 16.4643C53.6487 14.154 51.0817 0.035603 41.7122 2.73093Z" fill="#1F7B76"/>
<path fill-rule="evenodd" clip-rule="evenodd" d="M52.4935 22.6251C51.595 34.0481 50.9533 38.797 56.9857 47.7814C58.1408 49.45 60.0661 53.6855 63.0181 51.3752C65.4567 49.45 60.9645 45.4712 57.6274 38.0269C55.3171 32.893 54.4187 27.759 52.4935 22.4967V22.6251Z" fill="#1F7B76"/>
<path fill-rule="evenodd" clip-rule="evenodd" d="M24 50.4766C27.5938 51.2467 35.9364 50.99 39.9153 50.8617V39.4386H34.2679C35.1664 41.7489 36.7065 42.134 36.4498 44.8293C36.0648 48.1664 31.3159 50.0916 27.5938 43.4175C26.0536 40.7221 27.0804 39.1819 24.2567 39.3103L24.1283 50.4766H24Z" fill="#1F7B76"/>
<g clip-path="url(#clip0_465_9449)">
<path fill-rule="evenodd" clip-rule="evenodd" d="M48.1463 51.0007C48.1463 50.8321 48.2132 50.6705 48.3324 50.5513C48.4516 50.4322 48.6132 50.3652 48.7817 50.3652H49.4171C49.5857 50.3652 49.7473 50.4322 49.8664 50.5513C49.9856 50.6705 50.0526 50.8321 50.0526 51.0007V52.2715H51.3234C51.4919 52.2715 51.6536 52.3385 51.7727 52.4576C51.8919 52.5768 51.9588 52.7384 51.9588 52.9069V53.5424C51.9588 53.7109 51.8919 53.8725 51.7727 53.9917C51.6536 54.1109 51.4919 54.1778 51.3234 54.1778H50.0526V55.4487C50.0526 55.6172 49.9856 55.7788 49.8664 55.898C49.7473 56.0171 49.5857 56.0841 49.4171 56.0841H48.7817C48.6132 56.0841 48.4516 56.0171 48.3324 55.898C48.2132 55.7788 48.1463 55.6172 48.1463 55.4487V54.1778H46.8754C46.7069 54.1778 46.5453 54.1109 46.4261 53.9917C46.3069 53.8725 46.24 53.7109 46.24 53.5424V52.9069C46.24 52.7384 46.3069 52.5768 46.4261 52.4576C46.5453 52.3385 46.7069 52.2715 46.8754 52.2715H48.1463V51.0007Z" fill="white"/>
</g>
<defs>
<clipPath id="clip0_465_9449">
<rect width="7.62514" height="7.62514" fill="white" transform="translate(45.2869 49.4121)"/>
</clipPath>
</defs>
</svg>
