<svg width="88" height="88" viewBox="0 0 88 88" fill="none" xmlns="http://www.w3.org/2000/svg">
<path d="M42.1667 12.8333C42.1667 8.8 45.4667 5.5 49.5 5.5C53.5333 5.5 56.8333 8.8 56.8333 12.8333C56.8333 16.8667 53.5333 20.1667 49.5 20.1667C45.4667 20.1667 42.1667 16.8667 42.1667 12.8333ZM67.9433 40.3333C62.1867 40.37 57.1633 37.0333 54.7433 32.23L51.8467 26.1067C51.2233 24.8233 50.2333 23.7233 48.9133 22.99C47.8344 22.3695 46.6153 22.0339 45.3709 22.0146C44.1264 21.9954 42.8976 22.2932 41.8 22.88V22.8433L25.7033 32.01C23.43 33.2933 22 35.7133 22 38.3533V47.6667C22 49.6833 23.65 51.3333 25.6667 51.3333C27.6833 51.3333 29.3333 49.6833 29.3333 47.6667V38.3533L34.8333 35.2367C33.66 39.27 33 43.45 33 47.6667V67.21L25.6667 77C24.4567 78.6133 24.7867 80.9233 26.4 82.1333C28.0133 83.3433 30.3233 83.0133 31.5333 81.4L39.0133 71.4267C39.8567 70.29 40.37 68.8967 40.48 67.4667L41.14 56.6867L47.6667 66V80.6667C47.6667 82.6833 49.3167 84.3333 51.3333 84.3333C53.35 84.3333 55 82.6833 55 80.6667V62.81C55 61.3067 54.5233 59.84 53.68 58.5933L47.8133 50.1967V50.16C47.41 45.9067 48.07 41.6533 49.5 37.6933C52.4987 42.2599 57.0844 45.5521 62.37 46.9333V47.6667C62.37 48.6933 63.1767 49.5 64.2033 49.5C65.23 49.5 66 48.6933 66 47.6667V45.8333C66 44.8067 66.8067 44 67.8333 44C68.86 44 69.6667 44.8067 69.6667 45.8333V82.5C69.6667 83.5267 70.4733 84.3333 71.5 84.3333C72.5267 84.3333 73.3333 83.5267 73.3333 82.5V45.8333C73.3333 42.8267 70.9133 40.2967 67.9433 40.3333Z" fill="#1F7B76"/>
</svg>
