<svg width="88" height="88" viewBox="0 0 88 88" fill="none" xmlns="http://www.w3.org/2000/svg">
<path fill-rule="evenodd" clip-rule="evenodd" d="M22.3119 67.7163C19.865 70.8533 15.5986 74.6805 13.7791 76.8765C12.9635 77.8176 11.7087 78.8215 11.5832 80.7664C11.395 84.1545 15.0967 86.7268 18.171 84.9073C19.3003 84.2172 31.0957 71.5435 32.7269 69.6613C34.8601 67.2144 37.7462 65.5203 37.1816 62.2578C36.9306 60.6893 35.8013 59.4972 34.4837 58.9953C32.4132 58.1796 25.6372 58.9953 22.8139 58.6188C22.9393 57.1758 23.4413 55.67 23.6295 54.2269C23.8177 52.5957 22.3119 51.9683 21.3708 50.9644C20.4297 49.9605 19.8023 49.2077 18.7357 48.0783C18.171 47.5136 16.477 45.5687 16.1005 44.9413C20.1787 47.1372 24.1314 52.4702 27.6449 50.9644L38.1854 43.4355C39.6912 42.3061 42.2636 41.114 42.1381 38.4162C42.0126 35.9693 39.252 34.2125 36.7424 35.4046C35.4248 36.032 27.7077 42.3061 26.1391 42.8708L19.1121 37.6005C22.061 38.4162 26.2019 42.0552 26.0136 39.5455C25.8254 36.6594 22.8766 35.0282 20.0532 34.4635C12.1479 32.9577 8.57162 36.5339 7.37953 43.4355C5.99923 51.6546 1.41913 64.8302 11.5204 67.2771C14.5948 68.03 19.0494 67.2144 22.3747 67.5908L22.3119 67.7163Z" fill="#1F7B76"/>
<path fill-rule="evenodd" clip-rule="evenodd" d="M36.2405 33.0204C39.5658 32.393 40.3187 32.7694 42.5146 34.2752C43.5812 32.9576 45.9026 26.7463 48.5377 25.366C48.5377 28.503 48.1613 42.6825 48.726 44.502L50.5455 44.8785C55.753 45.5686 56.3804 50.7134 56.945 54.9798C60.3958 55.1053 59.5174 55.6072 60.3958 51.0271C61.2742 46.3215 63.8466 44.753 68.113 44.8785C68.6776 44.8785 68.113 44.8785 68.5522 44.8785C68.9286 44.8785 68.8659 44.8157 69.1168 44.753C69.9952 42.1806 68.9913 29.3187 69.4305 25.2405C71.25 26.6208 73.6342 30.5107 74.7008 32.8322C75.3909 34.4007 75.0772 34.9026 74.5753 36.4084C73.8852 38.6671 73.195 40.8003 72.5676 43.059C71.8774 45.5059 70.9363 48.0155 73.2577 49.3958C75.9556 51.0271 77.7751 48.6429 78.4025 46.5725C79.4064 43.2472 82.3552 35.4673 81.5396 32.4557C80.4102 28.3148 74.7635 18.4644 69.2423 18.2762C64.2858 18.088 65.9798 18.9664 62.4663 20.2839C57.6979 22.0407 55.0628 20.0957 52.4904 18.6527C50.42 17.4606 45.3379 18.2762 42.6401 21.6642C40.8833 23.8602 36.9306 29.3187 36.2405 33.0831V33.0204Z" fill="#1F7B76"/>
<path fill-rule="evenodd" clip-rule="evenodd" d="M71.0618 51.1526C69.0541 49.7722 69.807 49.1448 68.8659 47.89C67.9248 46.6979 65.4151 47.4508 64.5367 48.141C62.5918 49.584 62.4663 54.0386 61.9016 56.9875C61.3997 59.7481 58.5136 74.806 58.5763 76.3117C58.7018 79.3233 62.3408 81.4565 64.9759 79.5115C66.9836 78.0685 67.1719 73.8021 67.7365 70.7278C68.3012 67.528 68.8659 64.3909 69.4305 61.1911C69.9325 58.305 70.9991 54.0386 71.0618 51.1526Z" fill="#1F7B76"/>
<path fill-rule="evenodd" clip-rule="evenodd" d="M45.5261 51.9055C45.7143 53.6623 49.4788 75.8099 50.1062 77.6294C51.1101 80.3272 54.0589 80.8919 56.6313 79.2606C55.3765 74.3041 56.6313 74.6178 56.8823 70.2887C56.945 69.0338 54.4354 55.3563 53.9962 52.8466C53.3688 49.4586 52.8041 47.1999 49.0396 47.3254C48.4122 49.5214 47.4711 51.2781 45.5261 51.8428V51.9055Z" fill="#1F7B76"/>
<path fill-rule="evenodd" clip-rule="evenodd" d="M21.4335 16.7077C10.7675 19.531 14.9085 34.9026 25.1353 32.5184C28.9625 31.64 32.476 27.6873 31.1584 22.6053C30.2173 18.9663 26.3273 15.4528 21.4335 16.7077Z" fill="#1F7B76"/>
<path fill-rule="evenodd" clip-rule="evenodd" d="M57.0705 2.77914C46.6555 5.10057 50.169 20.7858 60.6468 18.5272C64.474 17.7115 67.7365 13.7588 66.6699 8.73955C65.8543 4.91234 61.9016 1.71254 57.0078 2.77914H57.0705Z" fill="#1F7B76"/>
<path fill-rule="evenodd" clip-rule="evenodd" d="M73.5714 52.5329C73.0694 56.0464 71.7519 60.6265 71.7519 64.0773C71.6891 68.5319 71.9401 73.2375 71.7519 77.6294L69.1795 77.6921C68.5521 79.9508 68.1756 79.5744 67.5482 80.8919H71.6891C71.9401 82.7114 71.9401 83.778 73.4459 84.4054C78.7161 86.4759 77.3358 77.0647 77.3358 73.2375C77.3358 70.1005 77.5241 53.7878 77.2104 52.1565C75.8928 52.5957 75.2026 52.6584 73.5714 52.5329Z" fill="#1F7B76"/>
<path fill-rule="evenodd" clip-rule="evenodd" d="M44.6478 80.8918H49.0396L47.5966 78.3194C47.0947 77.441 47.2829 77.692 44.585 77.6292C43.7067 66.0849 45.9026 66.8378 42.891 52.6583C40.7578 52.4073 40.6323 52.0936 38.9383 51.4034C38.9383 53.2857 38.9383 55.1679 38.9383 57.0501C38.9383 59.999 41.7617 61.8185 39.8167 66.1476C38.6874 68.72 38.9383 67.026 38.9383 71.1042C38.9383 77.2528 37.3071 85.6601 42.3891 84.468C44.2086 84.0916 44.2713 82.7113 44.585 80.829L44.6478 80.8918Z" fill="#1F7B76"/>
<path fill-rule="evenodd" clip-rule="evenodd" d="M79.3436 52.5329V75.8098C79.3436 79.3861 82.8571 79.1978 82.8571 75.8098V52.5329C82.8571 49.1448 79.3436 48.9566 79.3436 52.5329Z" fill="#1F7B76"/>
<path fill-rule="evenodd" clip-rule="evenodd" d="M39.3147 45.5059C39.3774 47.0744 40.0048 48.5174 41.0714 49.2703C42.8909 50.5251 47.3456 49.6468 45.777 44.5647L44.8359 41.3649C44.6477 40.8003 44.8359 41.2395 44.6477 40.8003C44.334 40.1101 44.5222 40.4866 44.334 40.2983C43.5811 41.5532 43.2674 42.6198 42.389 43.3727C41.4479 44.1255 40.3813 44.753 39.3774 45.5686L39.3147 45.5059Z" fill="#1F7B76"/>
<path fill-rule="evenodd" clip-rule="evenodd" d="M36.9934 75.8097V70.1002C36.115 70.6649 35.6131 71.4805 34.7974 72.2962C33.5426 73.551 33.4171 73.2373 33.4171 75.5587C33.4799 79.5114 36.9934 79.2604 36.9934 75.8097Z" fill="#1F7B76"/>
<path fill-rule="evenodd" clip-rule="evenodd" d="M33.4171 55.4189C34.1072 55.6699 36.3032 56.36 36.9306 56.5483C36.9306 54.4778 37.6835 50.5251 35.5503 50.0859C32.8524 49.5213 33.4171 53.4112 33.4171 55.4189Z" fill="#1F7B76"/>
</svg>
