<svg width="24" height="24" viewBox="0 0 24 24" fill="none" xmlns="http://www.w3.org/2000/svg">
<g clip-path="url(#clip0_772_20818)">
<path d="M17.1854 13.4142L13.4141 13.4142L14.8283 14.8284C13.268 16.3887 10.7318 16.3887 9.17148 14.8284C8.69536 14.3523 8.36066 13.7819 8.18153 13.1785H6.80503C7.01716 14.126 7.48857 15.0311 8.22867 15.7712C10.3123 17.8548 13.6875 17.8548 15.7711 15.7712L17.1854 17.1854L17.1854 13.4142ZM9.17148 9.17153C10.7318 7.61118 13.268 7.61118 14.8283 9.17153C15.3045 9.64765 15.6391 10.2181 15.8183 10.8214L17.1948 10.8214C16.9827 9.87392 16.5112 8.96883 15.7711 8.22872C13.6875 6.14512 10.3123 6.14512 8.22867 8.22872L6.81446 6.81451V10.5857H10.5857L9.17148 9.17153Z" fill="white"/>
</g>
<defs>
<clipPath id="clip0_772_20818">
<rect width="16" height="16" fill="white" transform="translate(12 0.686279) rotate(45)"/>
</clipPath>
</defs>
</svg>
